<svg xmlns="http://www.w3.org/2000/svg" xmlns:xlink="http://www.w3.org/1999/xlink" width="500" zoomAndPan="magnify" viewBox="0 0 375 374.999991" height="500" preserveAspectRatio="xMidYMid meet" version="1.0"><defs><g/><clipPath id="ac9bb2b71f"><path d="M 5 75 L 370 75 L 370 306.316406 L 5 306.316406 Z M 5 75 " clip-rule="nonzero"/></clipPath><clipPath id="81ebf4bb99"><path d="M 112 68.566406 L 158 68.566406 L 158 304 L 112 304 Z M 112 68.566406 " clip-rule="nonzero"/></clipPath><clipPath id="eed49822cb"><path d="M 217 68.566406 L 263 68.566406 L 263 304 L 217 304 Z M 217 68.566406 " clip-rule="nonzero"/></clipPath></defs><rect x="-37.5" width="450" fill="#ffffff" y="-37.499999" height="449.999989" fill-opacity="1"/><rect x="-37.5" width="450" fill="#120200" y="-37.499999" height="449.999989" fill-opacity="1"/><g clip-path="url(#ac9bb2b71f)"><path fill="#6a6a5d" d="M 369.007812 205.355469 L 369.007812 176.605469 C 361.746094 176.3125 356.230469 174.863281 352.453125 171.957031 C 348.679688 169.054688 346.355469 164.988281 344.902344 159.46875 C 343.449219 153.953125 342.871094 144.65625 342.871094 131.878906 C 342.871094 118.230469 342.289062 108.355469 340.835938 102.257812 C 339.386719 96.15625 337.0625 91.21875 333.285156 87.15625 C 329.511719 83.378906 324.574219 80.476562 318.476562 78.441406 C 312.375 76.699219 303.953125 75.539062 293.207031 75.539062 L 286.820312 75.539062 L 286.820312 104.289062 C 297.5625 104.289062 304.242188 105.449219 307.148438 107.484375 C 310.050781 109.515625 311.214844 114.453125 311.214844 121.714844 C 311.214844 144.078125 312.667969 159.761719 315.28125 168.761719 C 317.894531 177.765625 324.285156 185.027344 333.867188 190.835938 C 326.605469 194.902344 320.796875 200.710938 317.023438 208.839844 C 313.246094 216.683594 311.214844 233.816406 311.214844 260.246094 C 311.214844 266.636719 310.34375 270.410156 308.601562 272.445312 C 306.859375 274.1875 304.824219 275.636719 302.792969 276.507812 C 300.757812 277.378906 295.53125 277.671875 286.820312 277.671875 L 286.820312 306.421875 L 293.207031 306.421875 C 309.472656 306.421875 320.21875 304.390625 326.027344 300.613281 C 331.835938 296.546875 335.898438 292.191406 338.515625 286.964844 C 341.128906 281.738281 342.578125 269.828125 342.578125 250.660156 C 342.578125 237.882812 343.160156 228.589844 344.613281 223.070312 C 346.066406 217.554688 348.386719 213.199219 352.164062 210.292969 C 355.9375 207.390625 361.457031 205.648438 368.71875 205.355469 Z M 5.980469 205.355469 C 13.242188 205.648438 18.757812 207.390625 22.535156 210.292969 C 26.308594 213.199219 28.632812 217.261719 30.085938 222.78125 C 31.539062 228.300781 32.117188 237.59375 32.117188 250.660156 C 32.117188 269.25 33.570312 281.445312 36.183594 286.964844 C 38.796875 292.484375 43.445312 297.128906 49.542969 300.90625 C 55.644531 304.679688 66.386719 306.421875 81.78125 306.421875 L 88.171875 306.421875 L 88.171875 277.671875 C 78.003906 277.671875 71.617188 276.507812 68.421875 274.1875 C 65.226562 271.863281 63.773438 267.214844 63.773438 260.246094 C 63.773438 237.300781 62.324219 221.328125 59.417969 212.328125 C 56.515625 203.324219 50.414062 196.351562 41.414062 191.125 C 51.285156 185.316406 57.386719 177.765625 60 168.472656 C 62.613281 159.179688 63.773438 143.785156 63.773438 122.003906 C 63.773438 114.453125 65.226562 109.808594 68.132812 107.773438 C 71.035156 105.742188 77.714844 104.578125 88.171875 104.578125 L 88.171875 75.828125 L 81.78125 75.828125 C 67.839844 75.828125 57.386719 77.570312 50.414062 81.054688 C 43.445312 84.539062 38.507812 89.769531 36.183594 96.738281 C 33.570312 103.707031 32.410156 115.324219 32.410156 131.878906 C 32.410156 144.65625 31.828125 153.660156 30.375 159.179688 C 28.925781 164.695312 26.601562 169.054688 22.824219 171.957031 C 19.050781 174.863281 13.53125 176.605469 6.269531 176.894531 L 6.269531 205.648438 Z M 5.980469 205.355469 " fill-opacity="1" fill-rule="nonzero"/></g><g clip-path="url(#81ebf4bb99)"><path fill="#c7bfb6" d="M 123.890625 292.191406 L 146.546875 292.191406 C 152.644531 292.191406 157.871094 297.128906 157.871094 303.519531 L 157.871094 79.894531 C 157.871094 73.796875 152.933594 68.566406 146.546875 68.566406 L 123.890625 68.566406 C 117.792969 68.566406 112.566406 73.503906 112.566406 79.894531 L 112.566406 303.519531 C 112.566406 297.421875 117.503906 292.191406 123.890625 292.191406 Z M 123.890625 292.191406 " fill-opacity="1" fill-rule="evenodd"/></g><path fill="#f6f6e9" d="M 177.328125 289.289062 L 199.984375 289.289062 C 206.082031 289.289062 211.308594 294.226562 211.308594 300.613281 L 211.308594 131.589844 C 211.308594 125.488281 206.371094 120.261719 199.984375 120.261719 L 177.328125 120.261719 C 171.230469 120.261719 166.003906 125.199219 166.003906 131.589844 L 166.003906 300.613281 C 166.003906 306.714844 170.941406 289.289062 177.328125 289.289062 Z M 177.328125 289.289062 " fill-opacity="1" fill-rule="evenodd"/><g clip-path="url(#eed49822cb)"><path fill="#c7bfb6" d="M 228.734375 292.191406 L 251.386719 292.191406 C 257.484375 292.191406 262.714844 297.128906 262.714844 303.519531 L 262.714844 79.894531 C 262.714844 73.796875 257.777344 68.566406 251.386719 68.566406 L 228.734375 68.566406 C 222.636719 68.566406 217.40625 73.503906 217.40625 79.894531 L 217.40625 303.519531 C 217.40625 297.421875 222.34375 292.191406 228.734375 292.191406 Z M 228.734375 292.191406 " fill-opacity="1" fill-rule="evenodd"/></g><g fill="#f6f6e9" fill-opacity="1"><g transform="translate(86.299596, 341.999978)"><g><path d="M 1.40625 0 L 0.296875 0 L 0.296875 -0.359375 C 0.941406 -0.410156 1.394531 -0.535156 1.65625 -0.734375 C 1.914062 -0.929688 2.046875 -1.285156 2.046875 -1.796875 L 2.046875 -8.078125 C 2.046875 -8.410156 2.019531 -8.675781 1.96875 -8.875 C 1.925781 -9.082031 1.789062 -9.25 1.5625 -9.375 C 1.332031 -9.5 0.9375 -9.613281 0.375 -9.71875 L 0.375 -10.078125 L 1.40625 -10.078125 C 2.09375 -10.078125 2.566406 -9.890625 2.828125 -9.515625 C 3.015625 -9.691406 3.269531 -9.828125 3.59375 -9.921875 C 3.925781 -10.023438 4.425781 -10.078125 5.09375 -10.078125 L 8.109375 -10.078125 C 8.304688 -10.078125 8.460938 -10.085938 8.578125 -10.109375 C 8.691406 -10.128906 8.785156 -10.21875 8.859375 -10.375 L 9.21875 -10.375 L 9.21875 -10.140625 C 9.21875 -9.585938 9.03125 -9.289062 8.65625 -9.25 C 8.894531 -9.039062 9.046875 -8.8125 9.109375 -8.5625 C 9.179688 -8.320312 9.21875 -8.0625 9.21875 -7.78125 L 9.21875 -7.28125 L 8.859375 -7.28125 C 8.660156 -7.957031 8.410156 -8.457031 8.109375 -8.78125 C 7.804688 -9.113281 7.4375 -9.332031 7 -9.4375 C 6.5625 -9.539062 6.035156 -9.59375 5.421875 -9.59375 C 4.703125 -9.59375 4.207031 -9.460938 3.9375 -9.203125 C 3.675781 -8.953125 3.546875 -8.582031 3.546875 -8.09375 L 3.546875 -5.53125 L 5.359375 -5.53125 C 5.640625 -5.53125 5.921875 -5.585938 6.203125 -5.703125 C 6.492188 -5.828125 6.742188 -6 6.953125 -6.21875 C 7.160156 -6.4375 7.269531 -6.703125 7.28125 -7.015625 L 7.578125 -7.015625 L 7.578125 -6.671875 C 7.578125 -5.992188 7.390625 -5.523438 7.015625 -5.265625 C 7.390625 -5.003906 7.578125 -4.535156 7.578125 -3.859375 L 7.578125 -3.359375 L 7.3125 -3.359375 C 7.269531 -3.753906 7.132812 -4.070312 6.90625 -4.3125 C 6.6875 -4.550781 6.421875 -4.722656 6.109375 -4.828125 C 5.796875 -4.941406 5.460938 -5 5.109375 -5 L 3.546875 -5 L 3.546875 -1.796875 C 3.546875 -1.492188 3.585938 -1.242188 3.671875 -1.046875 C 3.765625 -0.847656 3.941406 -0.691406 4.203125 -0.578125 C 4.460938 -0.472656 4.84375 -0.398438 5.34375 -0.359375 L 5.34375 0 L 4.234375 0 C 3.546875 0 3.078125 -0.1875 2.828125 -0.5625 C 2.566406 -0.1875 2.09375 0 1.40625 0 Z M 1.40625 0 "/></g></g></g><g fill="#f6f6e9" fill-opacity="1"><g transform="translate(99.378453, 341.999978)"><g><path d="M 7.921875 -6.453125 L 7.921875 -6.09375 C 7.546875 -6 7.265625 -5.859375 7.078125 -5.671875 C 6.898438 -5.492188 6.8125 -5.164062 6.8125 -4.6875 L 6.8125 -1.75 C 6.8125 -1.289062 6.898438 -0.96875 7.078125 -0.78125 C 7.265625 -0.601562 7.546875 -0.460938 7.921875 -0.359375 L 7.921875 0 L 7.5 0 C 7.082031 0 6.695312 -0.078125 6.34375 -0.234375 C 5.988281 -0.398438 5.75 -0.695312 5.625 -1.125 C 5.34375 -0.75 5.0625 -0.46875 4.78125 -0.28125 C 4.5 -0.09375 4.226562 0.0234375 3.96875 0.078125 C 3.71875 0.128906 3.484375 0.15625 3.265625 0.15625 C 2.773438 0.15625 2.34375 -0.00390625 1.96875 -0.328125 C 1.601562 -0.660156 1.421875 -1.160156 1.421875 -1.828125 L 1.421875 -4.6875 C 1.421875 -5.1875 1.332031 -5.519531 1.15625 -5.6875 C 0.976562 -5.863281 0.707031 -6 0.34375 -6.09375 L 0.34375 -6.453125 L 0.765625 -6.453125 C 1.398438 -6.453125 1.835938 -6.265625 2.078125 -5.890625 C 2.316406 -6.265625 2.753906 -6.453125 3.390625 -6.453125 L 3.53125 -6.453125 L 3.53125 -6.09375 C 3.28125 -6.019531 3.097656 -5.9375 2.984375 -5.84375 C 2.867188 -5.75 2.789062 -5.613281 2.75 -5.4375 C 2.71875 -5.257812 2.703125 -5.007812 2.703125 -4.6875 L 2.703125 -2.25 C 2.703125 -1.875 2.785156 -1.539062 2.953125 -1.25 C 3.117188 -0.96875 3.429688 -0.828125 3.890625 -0.828125 C 4.304688 -0.828125 4.628906 -0.929688 4.859375 -1.140625 C 5.097656 -1.347656 5.269531 -1.625 5.375 -1.96875 C 5.476562 -2.320312 5.53125 -2.703125 5.53125 -3.109375 L 5.53125 -4.6875 C 5.53125 -5.019531 5.515625 -5.273438 5.484375 -5.453125 C 5.453125 -5.628906 5.378906 -5.757812 5.265625 -5.84375 C 5.148438 -5.9375 4.972656 -6.019531 4.734375 -6.09375 L 4.734375 -6.453125 L 4.875 -6.453125 C 5.507812 -6.453125 5.945312 -6.265625 6.1875 -5.890625 C 6.425781 -6.265625 6.863281 -6.453125 7.5 -6.453125 Z M 7.921875 -6.453125 "/></g></g></g><g fill="#f6f6e9" fill-opacity="1"><g transform="translate(111.159494, 341.999978)"><g><path d="M 3.34375 0 L 2.921875 0 C 2.585938 0 2.269531 -0.0507812 1.96875 -0.15625 C 1.664062 -0.257812 1.421875 -0.4375 1.234375 -0.6875 C 1.046875 -0.9375 0.953125 -1.285156 0.953125 -1.734375 L 0.953125 -8.3125 C 0.953125 -8.789062 0.859375 -9.117188 0.671875 -9.296875 C 0.492188 -9.484375 0.222656 -9.625 -0.140625 -9.71875 L -0.140625 -10.078125 L 0.265625 -10.078125 C 0.898438 -10.078125 1.34375 -9.890625 1.59375 -9.515625 C 1.851562 -9.890625 2.296875 -10.078125 2.921875 -10.078125 L 3.34375 -10.078125 L 3.34375 -9.71875 C 2.96875 -9.625 2.6875 -9.484375 2.5 -9.296875 C 2.320312 -9.117188 2.234375 -8.789062 2.234375 -8.3125 L 2.234375 -1.75 C 2.234375 -1.289062 2.320312 -0.96875 2.5 -0.78125 C 2.6875 -0.601562 2.96875 -0.460938 3.34375 -0.359375 Z M 3.34375 0 "/></g></g></g><g fill="#f6f6e9" fill-opacity="1"><g transform="translate(118.291237, 341.999978)"><g><path d="M 3.34375 0 L 2.921875 0 C 2.585938 0 2.269531 -0.0507812 1.96875 -0.15625 C 1.664062 -0.257812 1.421875 -0.4375 1.234375 -0.6875 C 1.046875 -0.9375 0.953125 -1.285156 0.953125 -1.734375 L 0.953125 -8.3125 C 0.953125 -8.789062 0.859375 -9.117188 0.671875 -9.296875 C 0.492188 -9.484375 0.222656 -9.625 -0.140625 -9.71875 L -0.140625 -10.078125 L 0.265625 -10.078125 C 0.898438 -10.078125 1.34375 -9.890625 1.59375 -9.515625 C 1.851562 -9.890625 2.296875 -10.078125 2.921875 -10.078125 L 3.34375 -10.078125 L 3.34375 -9.71875 C 2.96875 -9.625 2.6875 -9.484375 2.5 -9.296875 C 2.320312 -9.117188 2.234375 -8.789062 2.234375 -8.3125 L 2.234375 -1.75 C 2.234375 -1.289062 2.320312 -0.96875 2.5 -0.78125 C 2.6875 -0.601562 2.96875 -0.460938 3.34375 -0.359375 Z M 3.34375 0 "/></g></g></g><g fill="#f6f6e9" fill-opacity="1"><g transform="translate(133.125182, 341.999978)"><g><path d="M 0.9375 0.265625 L 0.578125 0.265625 L 0.578125 0.109375 C 0.578125 -0.171875 0.628906 -0.382812 0.734375 -0.53125 C 0.847656 -0.6875 0.984375 -0.773438 1.140625 -0.796875 C 0.929688 -0.984375 0.785156 -1.203125 0.703125 -1.453125 C 0.617188 -1.703125 0.578125 -2.03125 0.578125 -2.4375 L 0.578125 -2.796875 L 0.9375 -2.796875 C 1.332031 -2.140625 1.679688 -1.640625 1.984375 -1.296875 C 2.296875 -0.953125 2.609375 -0.71875 2.921875 -0.59375 C 3.234375 -0.46875 3.585938 -0.40625 3.984375 -0.40625 C 4.597656 -0.40625 5.050781 -0.570312 5.34375 -0.90625 C 5.644531 -1.25 5.796875 -1.640625 5.796875 -2.078125 C 5.796875 -2.367188 5.722656 -2.664062 5.578125 -2.96875 C 5.429688 -3.28125 5.21875 -3.554688 4.9375 -3.796875 C 4.457031 -4.203125 3.957031 -4.585938 3.4375 -4.953125 C 2.925781 -5.316406 2.476562 -5.65625 2.09375 -5.96875 C 1.71875 -6.289062 1.453125 -6.582031 1.296875 -6.84375 C 1.148438 -7.113281 1.078125 -7.425781 1.078125 -7.78125 C 1.078125 -8.289062 1.207031 -8.726562 1.46875 -9.09375 C 1.726562 -9.46875 2.082031 -9.753906 2.53125 -9.953125 C 2.988281 -10.148438 3.515625 -10.25 4.109375 -10.25 C 4.535156 -10.25 4.910156 -10.238281 5.234375 -10.21875 C 5.566406 -10.195312 5.832031 -10.160156 6.03125 -10.109375 C 6.300781 -10.054688 6.484375 -10.046875 6.578125 -10.078125 C 6.671875 -10.117188 6.765625 -10.21875 6.859375 -10.375 L 7.21875 -10.375 L 7.21875 -10.203125 C 7.21875 -9.960938 7.171875 -9.753906 7.078125 -9.578125 C 6.992188 -9.410156 6.851562 -9.316406 6.65625 -9.296875 C 6.90625 -9.085938 7.0625 -8.859375 7.125 -8.609375 C 7.1875 -8.367188 7.21875 -8.109375 7.21875 -7.828125 L 7.21875 -7.296875 L 6.859375 -7.296875 C 6.648438 -7.953125 6.375 -8.445312 6.03125 -8.78125 C 5.695312 -9.125 5.351562 -9.359375 5 -9.484375 C 4.644531 -9.609375 4.320312 -9.671875 4.03125 -9.671875 C 3.644531 -9.671875 3.332031 -9.585938 3.09375 -9.421875 C 2.851562 -9.265625 2.679688 -9.078125 2.578125 -8.859375 C 2.472656 -8.648438 2.421875 -8.457031 2.421875 -8.28125 C 2.421875 -8.082031 2.472656 -7.890625 2.578125 -7.703125 C 2.691406 -7.523438 2.804688 -7.378906 2.921875 -7.265625 C 3.109375 -7.078125 3.382812 -6.859375 3.75 -6.609375 C 4.113281 -6.359375 4.503906 -6.085938 4.921875 -5.796875 C 5.347656 -5.503906 5.738281 -5.203125 6.09375 -4.890625 C 6.519531 -4.515625 6.828125 -4.160156 7.015625 -3.828125 C 7.203125 -3.503906 7.296875 -3.132812 7.296875 -2.71875 C 7.296875 -2.40625 7.234375 -2.078125 7.109375 -1.734375 C 6.992188 -1.398438 6.796875 -1.085938 6.515625 -0.796875 C 6.242188 -0.515625 5.878906 -0.28125 5.421875 -0.09375 C 4.972656 0.0820312 4.410156 0.171875 3.734375 0.171875 C 3.378906 0.171875 3.050781 0.160156 2.75 0.140625 C 2.445312 0.128906 2.140625 0.09375 1.828125 0.03125 C 1.546875 -0.03125 1.351562 -0.046875 1.25 -0.015625 C 1.15625 0.015625 1.050781 0.109375 0.9375 0.265625 Z M 0.9375 0.265625 "/></g></g></g><g fill="#f6f6e9" fill-opacity="1"><g transform="translate(144.720816, 341.999978)"><g><path d="M 4.515625 -6.453125 L 4.515625 -5.875 L 2.71875 -5.875 L 2.71875 -2.046875 C 2.71875 -1.628906 2.765625 -1.3125 2.859375 -1.09375 C 2.953125 -0.875 3.109375 -0.710938 3.328125 -0.609375 C 3.554688 -0.503906 3.863281 -0.421875 4.25 -0.359375 L 4.25 0 L 3.40625 0 C 3.070312 0 2.753906 -0.0507812 2.453125 -0.15625 C 2.148438 -0.257812 1.90625 -0.4375 1.71875 -0.6875 C 1.53125 -0.9375 1.4375 -1.285156 1.4375 -1.734375 L 1.4375 -4.6875 C 1.4375 -5.164062 1.347656 -5.492188 1.171875 -5.671875 C 0.992188 -5.859375 0.71875 -6 0.34375 -6.09375 L 0.34375 -6.453125 L 0.75 -6.453125 C 1.0625 -6.453125 1.316406 -6.515625 1.515625 -6.640625 C 1.722656 -6.765625 1.882812 -7 2 -7.34375 C 2.125 -7.6875 2.195312 -8.171875 2.21875 -8.796875 L 2.71875 -8.796875 L 2.71875 -6.453125 Z M 4.515625 -6.453125 "/></g></g></g><g fill="#f6f6e9" fill-opacity="1"><g transform="translate(153.064794, 341.999978)"><g><path d="M 5.59375 -4.6875 L 5.59375 -1.75 C 5.59375 -1.289062 5.632812 -0.960938 5.71875 -0.765625 C 5.8125 -0.566406 5.988281 -0.429688 6.25 -0.359375 L 6.25 0 L 5.453125 0 C 5.128906 0 4.878906 -0.09375 4.703125 -0.28125 C 4.523438 -0.476562 4.410156 -0.738281 4.359375 -1.0625 C 4.148438 -0.625 3.875 -0.316406 3.53125 -0.140625 C 3.1875 0.0351562 2.847656 0.125 2.515625 0.125 C 1.953125 0.125 1.503906 -0.03125 1.171875 -0.34375 C 0.847656 -0.65625 0.6875 -1.039062 0.6875 -1.5 C 0.6875 -1.851562 0.773438 -2.140625 0.953125 -2.359375 C 1.128906 -2.585938 1.351562 -2.773438 1.625 -2.921875 C 1.90625 -3.066406 2.203125 -3.195312 2.515625 -3.3125 C 2.828125 -3.4375 3.109375 -3.5625 3.359375 -3.6875 C 3.785156 -3.90625 4.054688 -4.128906 4.171875 -4.359375 C 4.285156 -4.585938 4.34375 -4.859375 4.34375 -5.171875 C 4.34375 -5.304688 4.328125 -5.453125 4.296875 -5.609375 C 4.273438 -5.765625 4.210938 -5.894531 4.109375 -6 C 4.003906 -6.101562 3.84375 -6.15625 3.625 -6.15625 C 3.351562 -6.15625 3.15625 -6.097656 3.03125 -5.984375 C 2.90625 -5.867188 2.8125 -5.710938 2.75 -5.515625 C 2.695312 -5.316406 2.648438 -5.113281 2.609375 -4.90625 C 2.566406 -4.695312 2.5 -4.492188 2.40625 -4.296875 C 2.3125 -4.109375 2.164062 -3.953125 1.96875 -3.828125 C 1.769531 -3.710938 1.476562 -3.65625 1.09375 -3.65625 L 0.6875 -3.65625 L 0.6875 -4.015625 C 0.863281 -4.015625 1 -4.097656 1.09375 -4.265625 C 1.195312 -4.441406 1.296875 -4.660156 1.390625 -4.921875 C 1.484375 -5.191406 1.609375 -5.457031 1.765625 -5.71875 C 1.929688 -5.976562 2.160156 -6.195312 2.453125 -6.375 C 2.753906 -6.550781 3.164062 -6.640625 3.6875 -6.640625 C 4.332031 -6.640625 4.8125 -6.492188 5.125 -6.203125 C 5.4375 -5.921875 5.59375 -5.414062 5.59375 -4.6875 Z M 2.90625 -0.8125 C 3.101562 -0.8125 3.3125 -0.859375 3.53125 -0.953125 C 3.75 -1.054688 3.9375 -1.226562 4.09375 -1.46875 C 4.257812 -1.707031 4.34375 -2.039062 4.34375 -2.46875 L 4.34375 -3.6875 C 4.21875 -3.46875 4.023438 -3.289062 3.765625 -3.15625 C 3.515625 -3.019531 3.253906 -2.882812 2.984375 -2.75 C 2.722656 -2.625 2.5 -2.476562 2.3125 -2.3125 C 2.132812 -2.15625 2.046875 -1.941406 2.046875 -1.671875 C 2.046875 -1.429688 2.125 -1.226562 2.28125 -1.0625 C 2.4375 -0.894531 2.644531 -0.8125 2.90625 -0.8125 Z M 2.90625 -0.8125 "/></g></g></g><g fill="#f6f6e9" fill-opacity="1"><g transform="translate(163.262784, 341.999978)"><g><path d="M 3.6875 0.125 C 2.75 0.125 2.007812 -0.132812 1.46875 -0.65625 C 0.925781 -1.1875 0.65625 -1.925781 0.65625 -2.875 C 0.65625 -3.382812 0.75 -3.863281 0.9375 -4.3125 C 1.132812 -4.757812 1.398438 -5.15625 1.734375 -5.5 C 2.066406 -5.84375 2.4375 -6.113281 2.84375 -6.3125 C 3.257812 -6.507812 3.679688 -6.609375 4.109375 -6.609375 C 4.546875 -6.609375 4.878906 -6.519531 5.109375 -6.34375 C 5.347656 -6.164062 5.523438 -5.945312 5.640625 -5.6875 C 5.765625 -5.425781 5.859375 -5.164062 5.921875 -4.90625 C 5.984375 -4.644531 6.054688 -4.425781 6.140625 -4.25 C 6.234375 -4.070312 6.367188 -3.984375 6.546875 -3.984375 L 6.546875 -3.625 L 6.140625 -3.625 C 5.765625 -3.625 5.476562 -3.679688 5.28125 -3.796875 C 5.082031 -3.910156 4.9375 -4.054688 4.84375 -4.234375 C 4.757812 -4.410156 4.703125 -4.597656 4.671875 -4.796875 C 4.640625 -4.992188 4.601562 -5.179688 4.5625 -5.359375 C 4.519531 -5.546875 4.441406 -5.695312 4.328125 -5.8125 C 4.222656 -5.925781 4.046875 -5.984375 3.796875 -5.984375 C 3.535156 -5.984375 3.253906 -5.898438 2.953125 -5.734375 C 2.648438 -5.566406 2.390625 -5.289062 2.171875 -4.90625 C 1.960938 -4.53125 1.859375 -4.019531 1.859375 -3.375 C 1.859375 -2.925781 1.945312 -2.519531 2.125 -2.15625 C 2.3125 -1.800781 2.578125 -1.515625 2.921875 -1.296875 C 3.273438 -1.085938 3.695312 -0.984375 4.1875 -0.984375 C 4.570312 -0.984375 4.898438 -1.039062 5.171875 -1.15625 C 5.453125 -1.28125 5.707031 -1.472656 5.9375 -1.734375 L 6.25 -1.5625 C 6.125 -1.207031 5.925781 -0.898438 5.65625 -0.640625 C 5.382812 -0.390625 5.078125 -0.195312 4.734375 -0.0625 C 4.390625 0.0625 4.039062 0.125 3.6875 0.125 Z M 3.6875 0.125 "/></g></g></g><g fill="#f6f6e9" fill-opacity="1"><g transform="translate(173.803055, 341.999978)"><g><path d="M 0.765625 0 L 0.359375 0 L 0.359375 -0.359375 C 0.722656 -0.460938 0.992188 -0.601562 1.171875 -0.78125 C 1.359375 -0.96875 1.453125 -1.289062 1.453125 -1.75 L 1.453125 -8.3125 C 1.453125 -8.789062 1.359375 -9.117188 1.171875 -9.296875 C 0.992188 -9.484375 0.722656 -9.625 0.359375 -9.71875 L 0.359375 -10.078125 L 0.765625 -10.078125 C 1.398438 -10.078125 1.835938 -9.890625 2.078125 -9.515625 C 2.316406 -9.890625 2.753906 -10.078125 3.390625 -10.078125 L 3.828125 -10.078125 L 3.828125 -9.71875 C 3.472656 -9.625 3.203125 -9.488281 3.015625 -9.3125 C 2.828125 -9.144531 2.734375 -8.8125 2.734375 -8.3125 L 2.734375 -3.671875 C 3.484375 -4.085938 4.054688 -4.457031 4.453125 -4.78125 C 4.859375 -5.101562 5.0625 -5.367188 5.0625 -5.578125 C 5.0625 -5.734375 4.960938 -5.847656 4.765625 -5.921875 C 4.578125 -5.992188 4.320312 -6.050781 4 -6.09375 L 4 -6.453125 L 4.515625 -6.453125 C 5.140625 -6.453125 5.578125 -6.265625 5.828125 -5.890625 C 6.085938 -6.265625 6.53125 -6.453125 7.15625 -6.453125 L 7.515625 -6.453125 L 7.515625 -6.09375 C 7.171875 -6 6.878906 -5.875 6.640625 -5.71875 C 6.398438 -5.5625 6.101562 -5.359375 5.75 -5.109375 L 3.875 -3.78125 C 4.082031 -3.5 4.394531 -3.148438 4.8125 -2.734375 C 5.226562 -2.328125 5.710938 -1.910156 6.265625 -1.484375 C 6.828125 -1.054688 7.425781 -0.671875 8.0625 -0.328125 L 8.0625 0 L 7.859375 0 C 7.535156 0 7.226562 -0.046875 6.9375 -0.140625 C 6.644531 -0.234375 6.367188 -0.375 6.109375 -0.5625 C 6.128906 -0.375 6.039062 -0.234375 5.84375 -0.140625 C 5.65625 -0.046875 5.394531 0 5.0625 0 L 4.75 0 L 4.75 -0.359375 C 5 -0.359375 5.125 -0.445312 5.125 -0.625 C 5.125 -0.757812 5.066406 -0.882812 4.953125 -1 C 4.847656 -1.113281 4.691406 -1.257812 4.484375 -1.4375 C 4.273438 -1.613281 4.023438 -1.84375 3.734375 -2.125 C 3.441406 -2.40625 3.109375 -2.785156 2.734375 -3.265625 L 2.734375 -1.75 C 2.734375 -1.257812 2.828125 -0.929688 3.015625 -0.765625 C 3.203125 -0.597656 3.472656 -0.460938 3.828125 -0.359375 L 3.828125 0 L 3.390625 0 C 2.753906 0 2.316406 -0.1875 2.078125 -0.5625 C 1.835938 -0.1875 1.398438 0 0.765625 0 Z M 0.765625 0 "/></g></g></g><g fill="#f6f6e9" fill-opacity="1"><g transform="translate(193.357614, 341.999978)"><g><path d="M 5.203125 -10.078125 L 5.828125 -10.078125 C 7.742188 -10.078125 9.222656 -9.648438 10.265625 -8.796875 C 11.304688 -7.941406 11.828125 -6.734375 11.828125 -5.171875 C 11.828125 -4.453125 11.6875 -3.78125 11.40625 -3.15625 C 11.125 -2.53125 10.726562 -1.976562 10.21875 -1.5 C 9.707031 -1.03125 9.097656 -0.660156 8.390625 -0.390625 C 7.691406 -0.128906 6.921875 0 6.078125 0 L 5.203125 0 C 4.515625 0 3.988281 -0.046875 3.625 -0.140625 C 3.257812 -0.234375 2.984375 -0.375 2.796875 -0.5625 C 2.535156 -0.1875 2.066406 0 1.390625 0 L 0.328125 0 L 0.328125 -0.359375 C 0.785156 -0.398438 1.132812 -0.484375 1.375 -0.609375 C 1.613281 -0.742188 1.78125 -0.945312 1.875 -1.21875 C 1.96875 -1.5 2.015625 -1.878906 2.015625 -2.359375 L 2.015625 -7.71875 C 2.015625 -8.207031 1.960938 -8.578125 1.859375 -8.828125 C 1.753906 -9.085938 1.578125 -9.28125 1.328125 -9.40625 C 1.085938 -9.53125 0.753906 -9.632812 0.328125 -9.71875 L 0.328125 -10.078125 L 1.390625 -10.078125 C 2.066406 -10.078125 2.535156 -9.890625 2.796875 -9.515625 C 2.984375 -9.691406 3.257812 -9.828125 3.625 -9.921875 C 4 -10.023438 4.523438 -10.078125 5.203125 -10.078125 Z M 5.625 -0.546875 C 6.6875 -0.546875 7.539062 -0.71875 8.1875 -1.0625 C 8.832031 -1.414062 9.300781 -1.910156 9.59375 -2.546875 C 9.894531 -3.191406 10.046875 -3.941406 10.046875 -4.796875 C 10.046875 -5.671875 9.898438 -6.410156 9.609375 -7.015625 C 9.316406 -7.628906 8.929688 -8.117188 8.453125 -8.484375 C 7.972656 -8.859375 7.445312 -9.128906 6.875 -9.296875 C 6.3125 -9.472656 5.757812 -9.5625 5.21875 -9.5625 C 4.726562 -9.5625 4.359375 -9.503906 4.109375 -9.390625 C 3.859375 -9.273438 3.695312 -9.113281 3.625 -8.90625 C 3.550781 -8.695312 3.515625 -8.441406 3.515625 -8.140625 L 3.515625 -1.921875 C 3.515625 -1.703125 3.550781 -1.484375 3.625 -1.265625 C 3.707031 -1.054688 3.898438 -0.882812 4.203125 -0.75 C 4.503906 -0.613281 4.976562 -0.546875 5.625 -0.546875 Z M 5.625 -0.546875 "/></g></g></g><g fill="#f6f6e9" fill-opacity="1"><g transform="translate(209.303055, 341.999978)"><g><path d="M 6.5625 -3.625 L 1.875 -3.625 L 1.875 -3.421875 C 1.875 -2.972656 1.960938 -2.5625 2.140625 -2.1875 C 2.328125 -1.820312 2.59375 -1.53125 2.9375 -1.3125 C 3.289062 -1.09375 3.707031 -0.984375 4.1875 -0.984375 C 4.582031 -0.984375 4.914062 -1.039062 5.1875 -1.15625 C 5.46875 -1.28125 5.722656 -1.472656 5.953125 -1.734375 L 6.265625 -1.5625 C 6.140625 -1.207031 5.941406 -0.898438 5.671875 -0.640625 C 5.398438 -0.390625 5.09375 -0.195312 4.75 -0.0625 C 4.40625 0.0625 4.054688 0.125 3.703125 0.125 C 2.765625 0.125 2.023438 -0.144531 1.484375 -0.6875 C 0.941406 -1.226562 0.671875 -1.96875 0.671875 -2.90625 C 0.671875 -3.425781 0.765625 -3.90625 0.953125 -4.34375 C 1.148438 -4.789062 1.414062 -5.179688 1.75 -5.515625 C 2.082031 -5.859375 2.453125 -6.125 2.859375 -6.3125 C 3.273438 -6.507812 3.695312 -6.609375 4.125 -6.609375 C 4.5625 -6.609375 4.894531 -6.519531 5.125 -6.34375 C 5.363281 -6.164062 5.539062 -5.945312 5.65625 -5.6875 C 5.769531 -5.425781 5.859375 -5.164062 5.921875 -4.90625 C 5.992188 -4.644531 6.070312 -4.425781 6.15625 -4.25 C 6.25 -4.070312 6.382812 -3.984375 6.5625 -3.984375 Z M 3.8125 -5.984375 C 3.582031 -5.984375 3.335938 -5.921875 3.078125 -5.796875 C 2.816406 -5.679688 2.578125 -5.488281 2.359375 -5.21875 C 2.148438 -4.945312 2.003906 -4.582031 1.921875 -4.125 L 4.9375 -4.125 C 4.820312 -4.289062 4.742188 -4.476562 4.703125 -4.6875 C 4.671875 -4.894531 4.628906 -5.097656 4.578125 -5.296875 C 4.535156 -5.492188 4.457031 -5.65625 4.34375 -5.78125 C 4.238281 -5.914062 4.0625 -5.984375 3.8125 -5.984375 Z M 3.8125 -5.984375 "/></g></g></g><g fill="#f6f6e9" fill-opacity="1"><g transform="translate(219.857597, 341.999978)"><g><path d="M 3.953125 0.125 L 3.4375 0.125 L 1.59375 -4.25 C 1.394531 -4.738281 1.226562 -5.09375 1.09375 -5.3125 C 0.96875 -5.539062 0.847656 -5.707031 0.734375 -5.8125 C 0.628906 -5.914062 0.484375 -6.007812 0.296875 -6.09375 L 0.296875 -6.453125 L 0.4375 -6.453125 C 1.070312 -6.453125 1.507812 -6.265625 1.75 -5.890625 C 1.988281 -6.265625 2.425781 -6.453125 3.0625 -6.453125 L 3.390625 -6.453125 L 3.390625 -6.09375 C 3.148438 -6.03125 2.957031 -5.941406 2.8125 -5.828125 C 2.675781 -5.722656 2.609375 -5.5625 2.609375 -5.34375 C 2.609375 -5.21875 2.632812 -5.054688 2.6875 -4.859375 C 2.738281 -4.660156 2.820312 -4.4375 2.9375 -4.1875 L 4.078125 -1.484375 L 5.28125 -4.125 C 5.382812 -4.351562 5.457031 -4.554688 5.5 -4.734375 C 5.550781 -4.921875 5.578125 -5.082031 5.578125 -5.21875 C 5.578125 -5.476562 5.503906 -5.671875 5.359375 -5.796875 C 5.222656 -5.929688 5.039062 -6.03125 4.8125 -6.09375 L 4.8125 -6.453125 L 4.984375 -6.453125 C 5.546875 -6.453125 5.929688 -6.265625 6.140625 -5.890625 C 6.347656 -6.265625 6.734375 -6.453125 7.296875 -6.453125 L 7.375 -6.453125 L 7.375 -6.09375 C 7.175781 -6.019531 7.003906 -5.90625 6.859375 -5.75 C 6.710938 -5.601562 6.5625 -5.398438 6.40625 -5.140625 C 6.257812 -4.878906 6.085938 -4.53125 5.890625 -4.09375 Z M 3.953125 0.125 "/></g></g></g><g fill="#f6f6e9" fill-opacity="1"><g transform="translate(230.954074, 341.999978)"><g><path d="M 6.5625 -3.625 L 1.875 -3.625 L 1.875 -3.421875 C 1.875 -2.972656 1.960938 -2.5625 2.140625 -2.1875 C 2.328125 -1.820312 2.59375 -1.53125 2.9375 -1.3125 C 3.289062 -1.09375 3.707031 -0.984375 4.1875 -0.984375 C 4.582031 -0.984375 4.914062 -1.039062 5.1875 -1.15625 C 5.46875 -1.28125 5.722656 -1.472656 5.953125 -1.734375 L 6.265625 -1.5625 C 6.140625 -1.207031 5.941406 -0.898438 5.671875 -0.640625 C 5.398438 -0.390625 5.09375 -0.195312 4.75 -0.0625 C 4.40625 0.0625 4.054688 0.125 3.703125 0.125 C 2.765625 0.125 2.023438 -0.144531 1.484375 -0.6875 C 0.941406 -1.226562 0.671875 -1.96875 0.671875 -2.90625 C 0.671875 -3.425781 0.765625 -3.90625 0.953125 -4.34375 C 1.148438 -4.789062 1.414062 -5.179688 1.75 -5.515625 C 2.082031 -5.859375 2.453125 -6.125 2.859375 -6.3125 C 3.273438 -6.507812 3.695312 -6.609375 4.125 -6.609375 C 4.5625 -6.609375 4.894531 -6.519531 5.125 -6.34375 C 5.363281 -6.164062 5.539062 -5.945312 5.65625 -5.6875 C 5.769531 -5.425781 5.859375 -5.164062 5.921875 -4.90625 C 5.992188 -4.644531 6.070312 -4.425781 6.15625 -4.25 C 6.25 -4.070312 6.382812 -3.984375 6.5625 -3.984375 Z M 3.8125 -5.984375 C 3.582031 -5.984375 3.335938 -5.921875 3.078125 -5.796875 C 2.816406 -5.679688 2.578125 -5.488281 2.359375 -5.21875 C 2.148438 -4.945312 2.003906 -4.582031 1.921875 -4.125 L 4.9375 -4.125 C 4.820312 -4.289062 4.742188 -4.476562 4.703125 -4.6875 C 4.671875 -4.894531 4.628906 -5.097656 4.578125 -5.296875 C 4.535156 -5.492188 4.457031 -5.65625 4.34375 -5.78125 C 4.238281 -5.914062 4.0625 -5.984375 3.8125 -5.984375 Z M 3.8125 -5.984375 "/></g></g></g><g fill="#f6f6e9" fill-opacity="1"><g transform="translate(241.508616, 341.999978)"><g><path d="M 3.34375 0 L 2.921875 0 C 2.585938 0 2.269531 -0.0507812 1.96875 -0.15625 C 1.664062 -0.257812 1.421875 -0.4375 1.234375 -0.6875 C 1.046875 -0.9375 0.953125 -1.285156 0.953125 -1.734375 L 0.953125 -8.3125 C 0.953125 -8.789062 0.859375 -9.117188 0.671875 -9.296875 C 0.492188 -9.484375 0.222656 -9.625 -0.140625 -9.71875 L -0.140625 -10.078125 L 0.265625 -10.078125 C 0.898438 -10.078125 1.34375 -9.890625 1.59375 -9.515625 C 1.851562 -9.890625 2.296875 -10.078125 2.921875 -10.078125 L 3.34375 -10.078125 L 3.34375 -9.71875 C 2.96875 -9.625 2.6875 -9.484375 2.5 -9.296875 C 2.320312 -9.117188 2.234375 -8.789062 2.234375 -8.3125 L 2.234375 -1.75 C 2.234375 -1.289062 2.320312 -0.96875 2.5 -0.78125 C 2.6875 -0.601562 2.96875 -0.460938 3.34375 -0.359375 Z M 3.34375 0 "/></g></g></g><g fill="#f6f6e9" fill-opacity="1"><g transform="translate(248.640356, 341.999978)"><g><path d="M 4.03125 0.125 C 3.382812 0.125 2.804688 -0.0234375 2.296875 -0.328125 C 1.796875 -0.628906 1.398438 -1.039062 1.109375 -1.5625 C 0.816406 -2.09375 0.671875 -2.675781 0.671875 -3.3125 C 0.671875 -3.925781 0.804688 -4.484375 1.078125 -4.984375 C 1.359375 -5.484375 1.738281 -5.878906 2.21875 -6.171875 C 2.707031 -6.472656 3.269531 -6.625 3.90625 -6.625 C 4.570312 -6.625 5.15625 -6.472656 5.65625 -6.171875 C 6.15625 -5.878906 6.546875 -5.472656 6.828125 -4.953125 C 7.109375 -4.441406 7.25 -3.859375 7.25 -3.203125 C 7.25 -2.578125 7.109375 -2.007812 6.828125 -1.5 C 6.546875 -1 6.164062 -0.601562 5.6875 -0.3125 C 5.207031 -0.0195312 4.65625 0.125 4.03125 0.125 Z M 4.109375 -0.40625 C 4.691406 -0.40625 5.125 -0.601562 5.40625 -1 C 5.695312 -1.40625 5.84375 -1.929688 5.84375 -2.578125 C 5.84375 -2.992188 5.804688 -3.410156 5.734375 -3.828125 C 5.660156 -4.242188 5.535156 -4.625 5.359375 -4.96875 C 5.191406 -5.3125 4.972656 -5.582031 4.703125 -5.78125 C 4.441406 -5.988281 4.113281 -6.09375 3.71875 -6.09375 C 3.257812 -6.09375 2.875 -5.910156 2.5625 -5.546875 C 2.25 -5.191406 2.09375 -4.648438 2.09375 -3.921875 C 2.09375 -3.535156 2.125 -3.132812 2.1875 -2.71875 C 2.257812 -2.3125 2.375 -1.929688 2.53125 -1.578125 C 2.6875 -1.234375 2.890625 -0.953125 3.140625 -0.734375 C 3.398438 -0.515625 3.722656 -0.40625 4.109375 -0.40625 Z M 4.109375 -0.40625 "/></g></g></g><g fill="#f6f6e9" fill-opacity="1"><g transform="translate(259.993546, 341.999978)"><g><path d="M 5.109375 -6.578125 C 5.691406 -6.578125 6.175781 -6.425781 6.5625 -6.125 C 6.945312 -5.832031 7.238281 -5.453125 7.4375 -4.984375 C 7.632812 -4.523438 7.734375 -4.035156 7.734375 -3.515625 C 7.734375 -2.859375 7.582031 -2.25 7.28125 -1.6875 C 6.988281 -1.132812 6.582031 -0.6875 6.0625 -0.34375 C 5.539062 0 4.941406 0.171875 4.265625 0.171875 C 3.941406 0.171875 3.65625 0.132812 3.40625 0.0625 C 3.15625 -0.0078125 2.929688 -0.0703125 2.734375 -0.125 L 2.734375 1.875 C 2.734375 2.332031 2.820312 2.648438 3 2.828125 C 3.1875 3.015625 3.46875 3.160156 3.84375 3.265625 L 3.84375 3.625 L 3.421875 3.625 C 2.796875 3.625 2.351562 3.4375 2.09375 3.0625 C 1.84375 3.4375 1.398438 3.625 0.765625 3.625 L 0.359375 3.625 L 0.359375 3.265625 C 0.722656 3.160156 0.992188 3.015625 1.171875 2.828125 C 1.359375 2.648438 1.453125 2.332031 1.453125 1.875 L 1.453125 -4.6875 C 1.453125 -5.164062 1.359375 -5.492188 1.171875 -5.671875 C 0.992188 -5.859375 0.722656 -6 0.359375 -6.09375 L 0.359375 -6.453125 L 0.765625 -6.453125 C 1.171875 -6.453125 1.546875 -6.375 1.890625 -6.21875 C 2.234375 -6.070312 2.476562 -5.8125 2.625 -5.4375 C 2.875 -5.695312 3.207031 -5.953125 3.625 -6.203125 C 4.050781 -6.453125 4.546875 -6.578125 5.109375 -6.578125 Z M 4.375 -5.609375 C 3.738281 -5.609375 3.304688 -5.375 3.078125 -4.90625 C 2.847656 -4.445312 2.734375 -3.707031 2.734375 -2.6875 C 2.734375 -2.019531 2.898438 -1.472656 3.234375 -1.046875 C 3.578125 -0.617188 4.015625 -0.40625 4.546875 -0.40625 C 4.804688 -0.40625 5.085938 -0.46875 5.390625 -0.59375 C 5.691406 -0.71875 5.945312 -0.941406 6.15625 -1.265625 C 6.375 -1.585938 6.484375 -2.054688 6.484375 -2.671875 C 6.484375 -3.003906 6.445312 -3.335938 6.375 -3.671875 C 6.300781 -4.015625 6.179688 -4.332031 6.015625 -4.625 C 5.847656 -4.914062 5.628906 -5.148438 5.359375 -5.328125 C 5.097656 -5.515625 4.769531 -5.609375 4.375 -5.609375 Z M 4.375 -5.609375 "/></g></g></g><g fill="#f6f6e9" fill-opacity="1"><g transform="translate(271.831634, 341.999978)"><g><path d="M 6.5625 -3.625 L 1.875 -3.625 L 1.875 -3.421875 C 1.875 -2.972656 1.960938 -2.5625 2.140625 -2.1875 C 2.328125 -1.820312 2.59375 -1.53125 2.9375 -1.3125 C 3.289062 -1.09375 3.707031 -0.984375 4.1875 -0.984375 C 4.582031 -0.984375 4.914062 -1.039062 5.1875 -1.15625 C 5.46875 -1.28125 5.722656 -1.472656 5.953125 -1.734375 L 6.265625 -1.5625 C 6.140625 -1.207031 5.941406 -0.898438 5.671875 -0.640625 C 5.398438 -0.390625 5.09375 -0.195312 4.75 -0.0625 C 4.40625 0.0625 4.054688 0.125 3.703125 0.125 C 2.765625 0.125 2.023438 -0.144531 1.484375 -0.6875 C 0.941406 -1.226562 0.671875 -1.96875 0.671875 -2.90625 C 0.671875 -3.425781 0.765625 -3.90625 0.953125 -4.34375 C 1.148438 -4.789062 1.414062 -5.179688 1.75 -5.515625 C 2.082031 -5.859375 2.453125 -6.125 2.859375 -6.3125 C 3.273438 -6.507812 3.695312 -6.609375 4.125 -6.609375 C 4.5625 -6.609375 4.894531 -6.519531 5.125 -6.34375 C 5.363281 -6.164062 5.539062 -5.945312 5.65625 -5.6875 C 5.769531 -5.425781 5.859375 -5.164062 5.921875 -4.90625 C 5.992188 -4.644531 6.070312 -4.425781 6.15625 -4.25 C 6.25 -4.070312 6.382812 -3.984375 6.5625 -3.984375 Z M 3.8125 -5.984375 C 3.582031 -5.984375 3.335938 -5.921875 3.078125 -5.796875 C 2.816406 -5.679688 2.578125 -5.488281 2.359375 -5.21875 C 2.148438 -4.945312 2.003906 -4.582031 1.921875 -4.125 L 4.9375 -4.125 C 4.820312 -4.289062 4.742188 -4.476562 4.703125 -4.6875 C 4.671875 -4.894531 4.628906 -5.097656 4.578125 -5.296875 C 4.535156 -5.492188 4.457031 -5.65625 4.34375 -5.78125 C 4.238281 -5.914062 4.0625 -5.984375 3.8125 -5.984375 Z M 3.8125 -5.984375 "/></g></g></g><g fill="#f6f6e9" fill-opacity="1"><g transform="translate(282.386176, 341.999978)"><g><path d="M 4.078125 -3.359375 L 3.9375 -3.625 C 4.132812 -3.738281 4.289062 -3.914062 4.40625 -4.15625 C 4.519531 -4.394531 4.578125 -4.65625 4.578125 -4.9375 C 4.578125 -5.25 4.507812 -5.5 4.375 -5.6875 C 4.238281 -5.875 4.050781 -5.972656 3.8125 -5.984375 C 3.53125 -5.984375 3.296875 -5.875 3.109375 -5.65625 C 2.929688 -5.4375 2.84375 -5.117188 2.84375 -4.703125 L 2.84375 -1.75 C 2.84375 -1.425781 2.875 -1.175781 2.9375 -1 C 3.007812 -0.820312 3.144531 -0.6875 3.34375 -0.59375 C 3.539062 -0.5 3.828125 -0.421875 4.203125 -0.359375 L 4.203125 0 L 3.5 0 C 2.863281 0 2.425781 -0.1875 2.1875 -0.5625 C 1.945312 -0.1875 1.507812 0 0.875 0 L 0.453125 0 L 0.453125 -0.359375 C 0.828125 -0.460938 1.101562 -0.601562 1.28125 -0.78125 C 1.46875 -0.96875 1.5625 -1.289062 1.5625 -1.75 L 1.5625 -4.6875 C 1.5625 -5.164062 1.46875 -5.492188 1.28125 -5.671875 C 1.101562 -5.859375 0.828125 -6 0.453125 -6.09375 L 0.453125 -6.453125 L 0.875 -6.453125 C 1.226562 -6.453125 1.566406 -6.390625 1.890625 -6.265625 C 2.222656 -6.140625 2.472656 -5.925781 2.640625 -5.625 C 2.785156 -5.925781 3.003906 -6.164062 3.296875 -6.34375 C 3.585938 -6.519531 3.925781 -6.609375 4.3125 -6.609375 C 4.769531 -6.609375 5.132812 -6.476562 5.40625 -6.21875 C 5.6875 -5.957031 5.828125 -5.613281 5.828125 -5.1875 C 5.828125 -4.738281 5.671875 -4.351562 5.359375 -4.03125 C 5.054688 -3.707031 4.628906 -3.484375 4.078125 -3.359375 Z M 4.078125 -3.359375 "/></g></g></g><g fill="#6a6a5d" fill-opacity="1"><g transform="translate(165.297841, 215.900011)"><g><path d="M 0.625 0 L 0.375 0 L 0.375 -0.78125 C 0.820312 -0.882812 1.222656 -1.070312 1.578125 -1.34375 C 1.929688 -1.625 2.273438 -2.0625 2.609375 -2.65625 C 2.953125 -3.257812 3.332031 -4.078125 3.75 -5.109375 L 8.890625 -18.015625 C 9.242188 -18.898438 9.269531 -19.613281 8.96875 -20.15625 C 8.675781 -20.707031 8.09375 -21.023438 7.21875 -21.109375 L 7.21875 -21.890625 L 8.53125 -21.890625 C 8.894531 -21.890625 9.296875 -21.785156 9.734375 -21.578125 C 10.171875 -21.367188 10.519531 -21.066406 10.78125 -20.671875 C 10.988281 -20.941406 11.320312 -21.210938 11.78125 -21.484375 C 12.238281 -21.753906 12.835938 -21.890625 13.578125 -21.890625 C 13.492188 -21.347656 13.539062 -20.8125 13.71875 -20.28125 C 13.894531 -19.757812 14.097656 -19.226562 14.328125 -18.6875 L 20.484375 -4.21875 C 20.835938 -3.382812 21.203125 -2.664062 21.578125 -2.0625 C 21.953125 -1.46875 22.582031 -1.039062 23.46875 -0.78125 L 23.46875 0 L 22.53125 0 C 21.050781 0 20.03125 -0.398438 19.46875 -1.203125 C 18.90625 -0.398438 17.882812 0 16.40625 0 L 15.0625 0 L 15.0625 -0.78125 C 15.625 -0.84375 16.117188 -0.957031 16.546875 -1.125 C 16.984375 -1.300781 17.285156 -1.582031 17.453125 -1.96875 C 17.617188 -2.351562 17.578125 -2.863281 17.328125 -3.5 L 15.3125 -8.65625 L 6.84375 -8.65625 L 5.515625 -4.65625 C 5.179688 -3.65625 5.140625 -2.875 5.390625 -2.3125 C 5.640625 -1.757812 6.039062 -1.367188 6.59375 -1.140625 C 7.15625 -0.921875 7.71875 -0.800781 8.28125 -0.78125 L 8.28125 0 L 6.765625 0 C 6.054688 0 5.429688 -0.101562 4.890625 -0.3125 C 4.359375 -0.519531 3.957031 -0.816406 3.6875 -1.203125 C 3.132812 -0.398438 2.113281 0 0.625 0 Z M 11 -19 L 7.40625 -10.171875 L 14.625 -10.171875 Z M 11 -19 "/></g></g></g><g fill="#6a6a5d" fill-opacity="1"><g transform="translate(186.127117, 215.900011)"><g><path d="M 8.71875 0 L 5.734375 0 L 5.734375 -0.5625 C 6.785156 -0.769531 7.601562 -0.972656 8.1875 -1.171875 C 8.78125 -1.378906 9.21875 -1.613281 9.5 -1.875 C 9.78125 -2.132812 9.953125 -2.425781 10.015625 -2.75 C 10.078125 -3.082031 10.109375 -3.46875 10.109375 -3.90625 L 10.109375 -16.953125 C 10.109375 -17.304688 10.082031 -17.695312 10.03125 -18.125 C 9.976562 -18.5625 9.84375 -18.984375 9.625 -19.390625 C 9.40625 -19.796875 9.050781 -20.128906 8.5625 -20.390625 C 8.082031 -20.660156 7.410156 -20.796875 6.546875 -20.796875 C 6.085938 -20.796875 5.550781 -20.6875 4.9375 -20.46875 C 4.332031 -20.257812 3.734375 -19.800781 3.140625 -19.09375 C 2.554688 -18.394531 2.054688 -17.300781 1.640625 -15.8125 L 0.875 -15.8125 L 0.875 -16.984375 C 0.875 -17.566406 0.941406 -18.128906 1.078125 -18.671875 C 1.222656 -19.222656 1.554688 -19.726562 2.078125 -20.1875 C 1.273438 -20.28125 0.875 -20.929688 0.875 -22.140625 L 0.875 -22.53125 L 1.640625 -22.53125 C 1.828125 -22.207031 2.046875 -22.019531 2.296875 -21.96875 C 2.546875 -21.914062 2.875 -21.890625 3.28125 -21.890625 L 20.28125 -21.890625 C 20.6875 -21.890625 21.015625 -21.914062 21.265625 -21.96875 C 21.515625 -22.019531 21.734375 -22.207031 21.921875 -22.53125 L 22.6875 -22.53125 L 22.6875 -22.140625 C 22.6875 -20.929688 22.285156 -20.28125 21.484375 -20.1875 C 22.015625 -19.726562 22.347656 -19.222656 22.484375 -18.671875 C 22.617188 -18.128906 22.6875 -17.566406 22.6875 -16.984375 L 22.6875 -15.8125 L 21.921875 -15.8125 C 21.523438 -17.300781 21.03125 -18.394531 20.4375 -19.09375 C 19.851562 -19.800781 19.253906 -20.257812 18.640625 -20.46875 C 18.035156 -20.6875 17.492188 -20.796875 17.015625 -20.796875 C 16.148438 -20.796875 15.472656 -20.660156 14.984375 -20.390625 C 14.503906 -20.128906 14.15625 -19.796875 13.9375 -19.390625 C 13.71875 -18.984375 13.582031 -18.5625 13.53125 -18.125 C 13.476562 -17.695312 13.453125 -17.304688 13.453125 -16.953125 L 13.453125 -3.90625 C 13.453125 -3.507812 13.476562 -3.144531 13.53125 -2.8125 C 13.582031 -2.488281 13.738281 -2.191406 14 -1.921875 C 14.257812 -1.648438 14.6875 -1.40625 15.28125 -1.1875 C 15.882812 -0.976562 16.734375 -0.769531 17.828125 -0.5625 L 17.828125 0 L 14.84375 0 C 14.164062 0 13.550781 -0.101562 13 -0.3125 C 12.457031 -0.519531 12.050781 -0.816406 11.78125 -1.203125 C 11.21875 -0.398438 10.195312 0 8.71875 0 Z M 8.71875 0 "/></g></g></g></svg>