<svg xmlns="http://www.w3.org/2000/svg" xmlns:xlink="http://www.w3.org/1999/xlink" width="500" zoomAndPan="magnify" viewBox="0 0 375 374.999991" height="500" preserveAspectRatio="xMidYMid meet" version="1.0"><defs><g/><clipPath id="34dec43ad7"><path d="M 5 75 L 370 75 L 370 306.316406 L 5 306.316406 Z M 5 75 " clip-rule="nonzero"/></clipPath><clipPath id="bcd64d5324"><path d="M 112 68.566406 L 158 68.566406 L 158 304 L 112 304 Z M 112 68.566406 " clip-rule="nonzero"/></clipPath><clipPath id="9b1bd6f673"><path d="M 217 68.566406 L 263 68.566406 L 263 304 L 217 304 Z M 217 68.566406 " clip-rule="nonzero"/></clipPath></defs><rect x="-37.5" width="450" fill="#ffffff" y="-37.499999" height="449.999989" fill-opacity="1"/><rect x="-37.5" width="450" fill="#120200" y="-37.499999" height="449.999989" fill-opacity="1"/><g clip-path="url(#34dec43ad7)"><path fill="#6a6a5d" d="M 369.007812 205.355469 L 369.007812 176.605469 C 361.746094 176.3125 356.230469 174.863281 352.453125 171.957031 C 348.679688 169.054688 346.355469 164.988281 344.902344 159.46875 C 343.449219 153.953125 342.871094 144.65625 342.871094 131.878906 C 342.871094 118.230469 342.289062 108.355469 340.835938 102.257812 C 339.386719 96.15625 337.0625 91.21875 333.285156 87.15625 C 329.511719 83.378906 324.574219 80.476562 318.476562 78.441406 C 312.375 76.699219 303.953125 75.539062 293.207031 75.539062 L 286.820312 75.539062 L 286.820312 104.289062 C 297.5625 104.289062 304.242188 105.449219 307.148438 107.484375 C 310.050781 109.515625 311.214844 114.453125 311.214844 121.714844 C 311.214844 144.078125 312.667969 159.761719 315.28125 168.761719 C 317.894531 177.765625 324.285156 185.027344 333.867188 190.835938 C 326.605469 194.902344 320.796875 200.710938 317.023438 208.839844 C 313.246094 216.683594 311.214844 233.816406 311.214844 260.246094 C 311.214844 266.636719 310.34375 270.410156 308.601562 272.445312 C 306.859375 274.1875 304.824219 275.636719 302.792969 276.507812 C 300.757812 277.378906 295.53125 277.671875 286.820312 277.671875 L 286.820312 306.421875 L 293.207031 306.421875 C 309.472656 306.421875 320.21875 304.390625 326.027344 300.613281 C 331.835938 296.546875 335.898438 292.191406 338.515625 286.964844 C 341.128906 281.738281 342.578125 269.828125 342.578125 250.660156 C 342.578125 237.882812 343.160156 228.589844 344.613281 223.070312 C 346.066406 217.554688 348.386719 213.199219 352.164062 210.292969 C 355.9375 207.390625 361.457031 205.648438 368.71875 205.355469 Z M 5.980469 205.355469 C 13.242188 205.648438 18.757812 207.390625 22.535156 210.292969 C 26.308594 213.199219 28.632812 217.261719 30.085938 222.78125 C 31.539062 228.300781 32.117188 237.59375 32.117188 250.660156 C 32.117188 269.25 33.570312 281.445312 36.183594 286.964844 C 38.796875 292.484375 43.445312 297.128906 49.542969 300.90625 C 55.644531 304.679688 66.386719 306.421875 81.78125 306.421875 L 88.171875 306.421875 L 88.171875 277.671875 C 78.003906 277.671875 71.617188 276.507812 68.421875 274.1875 C 65.226562 271.863281 63.773438 267.214844 63.773438 260.246094 C 63.773438 237.300781 62.324219 221.328125 59.417969 212.328125 C 56.515625 203.324219 50.414062 196.351562 41.414062 191.125 C 51.285156 185.316406 57.386719 177.765625 60 168.472656 C 62.613281 159.179688 63.773438 143.785156 63.773438 122.003906 C 63.773438 114.453125 65.226562 109.808594 68.132812 107.773438 C 71.035156 105.742188 77.714844 104.578125 88.171875 104.578125 L 88.171875 75.828125 L 81.78125 75.828125 C 67.839844 75.828125 57.386719 77.570312 50.414062 81.054688 C 43.445312 84.539062 38.507812 89.769531 36.183594 96.738281 C 33.570312 103.707031 32.410156 115.324219 32.410156 131.878906 C 32.410156 144.65625 31.828125 153.660156 30.375 159.179688 C 28.925781 164.695312 26.601562 169.054688 22.824219 171.957031 C 19.050781 174.863281 13.53125 176.605469 6.269531 176.894531 L 6.269531 205.648438 Z M 5.980469 205.355469 " fill-opacity="1" fill-rule="nonzero"/></g><g clip-path="url(#bcd64d5324)"><path fill="#c7bfb6" d="M 123.890625 292.191406 L 146.546875 292.191406 C 152.644531 292.191406 157.871094 297.128906 157.871094 303.519531 L 157.871094 79.894531 C 157.871094 73.796875 152.933594 68.566406 146.546875 68.566406 L 123.890625 68.566406 C 117.792969 68.566406 112.566406 73.503906 112.566406 79.894531 L 112.566406 303.519531 C 112.566406 297.421875 117.503906 292.191406 123.890625 292.191406 Z M 123.890625 292.191406 " fill-opacity="1" fill-rule="evenodd"/></g><path fill="#f6f6e9" d="M 177.328125 289.289062 L 199.984375 289.289062 C 206.082031 289.289062 211.308594 294.226562 211.308594 300.613281 L 211.308594 131.589844 C 211.308594 125.488281 206.371094 120.261719 199.984375 120.261719 L 177.328125 120.261719 C 171.230469 120.261719 166.003906 125.199219 166.003906 131.589844 L 166.003906 300.613281 C 166.003906 306.714844 170.941406 289.289062 177.328125 289.289062 Z M 177.328125 289.289062 " fill-opacity="1" fill-rule="evenodd"/><g clip-path="url(#9b1bd6f673)"><path fill="#c7bfb6" d="M 228.734375 292.191406 L 251.386719 292.191406 C 257.484375 292.191406 262.714844 297.128906 262.714844 303.519531 L 262.714844 79.894531 C 262.714844 73.796875 257.777344 68.566406 251.386719 68.566406 L 228.734375 68.566406 C 222.636719 68.566406 217.40625 73.503906 217.40625 79.894531 L 217.40625 303.519531 C 217.40625 297.421875 222.34375 292.191406 228.734375 292.191406 Z M 228.734375 292.191406 " fill-opacity="1" fill-rule="evenodd"/></g><g fill="#f6f6e9" fill-opacity="1"><g transform="translate(15.358945, 351.500017)"><g><path d="M 2.40625 0 L 0.515625 0 L 0.515625 -0.609375 C 1.609375 -0.703125 2.378906 -0.914062 2.828125 -1.25 C 3.273438 -1.582031 3.5 -2.1875 3.5 -3.0625 L 3.5 -13.734375 C 3.5 -14.296875 3.457031 -14.75 3.375 -15.09375 C 3.289062 -15.445312 3.050781 -15.726562 2.65625 -15.9375 C 2.257812 -16.15625 1.582031 -16.351562 0.625 -16.53125 L 0.625 -17.125 L 2.40625 -17.125 C 3.570312 -17.125 4.367188 -16.8125 4.796875 -16.1875 C 5.128906 -16.488281 5.570312 -16.71875 6.125 -16.875 C 6.6875 -17.039062 7.53125 -17.125 8.65625 -17.125 L 13.8125 -17.125 C 14.132812 -17.125 14.390625 -17.144531 14.578125 -17.1875 C 14.773438 -17.226562 14.9375 -17.378906 15.0625 -17.640625 L 15.671875 -17.640625 L 15.671875 -17.25 C 15.671875 -16.3125 15.359375 -15.800781 14.734375 -15.71875 C 15.128906 -15.363281 15.382812 -14.976562 15.5 -14.5625 C 15.613281 -14.15625 15.671875 -13.707031 15.671875 -13.21875 L 15.671875 -12.375 L 15.0625 -12.375 C 14.726562 -13.539062 14.304688 -14.398438 13.796875 -14.953125 C 13.285156 -15.515625 12.65625 -15.878906 11.90625 -16.046875 C 11.164062 -16.222656 10.269531 -16.3125 9.21875 -16.3125 C 7.988281 -16.3125 7.148438 -16.09375 6.703125 -15.65625 C 6.265625 -15.226562 6.046875 -14.597656 6.046875 -13.765625 L 6.046875 -9.421875 L 9.125 -9.421875 C 9.59375 -9.421875 10.070312 -9.519531 10.5625 -9.71875 C 11.0625 -9.914062 11.484375 -10.203125 11.828125 -10.578125 C 12.171875 -10.953125 12.351562 -11.40625 12.375 -11.9375 L 12.890625 -11.9375 L 12.890625 -11.359375 C 12.890625 -10.191406 12.570312 -9.390625 11.9375 -8.953125 C 12.570312 -8.515625 12.890625 -7.710938 12.890625 -6.546875 L 12.890625 -5.734375 L 12.453125 -5.734375 C 12.367188 -6.390625 12.132812 -6.921875 11.75 -7.328125 C 11.375 -7.734375 10.914062 -8.03125 10.375 -8.21875 C 9.84375 -8.40625 9.28125 -8.5 8.6875 -8.5 L 6.046875 -8.5 L 6.046875 -3.0625 C 6.046875 -2.539062 6.117188 -2.113281 6.265625 -1.78125 C 6.410156 -1.445312 6.703125 -1.1875 7.140625 -1 C 7.585938 -0.820312 8.238281 -0.691406 9.09375 -0.609375 L 9.09375 0 L 7.203125 0 C 6.035156 0 5.234375 -0.316406 4.796875 -0.953125 C 4.367188 -0.316406 3.570312 0 2.40625 0 Z M 2.40625 0 "/></g></g></g><g fill="#f6f6e9" fill-opacity="1"><g transform="translate(37.605184, 351.500017)"><g><path d="M 13.46875 -10.96875 L 13.46875 -10.359375 C 12.832031 -10.203125 12.359375 -9.96875 12.046875 -9.65625 C 11.742188 -9.351562 11.59375 -8.796875 11.59375 -7.984375 L 11.59375 -2.984375 C 11.59375 -2.191406 11.742188 -1.640625 12.046875 -1.328125 C 12.359375 -1.023438 12.832031 -0.785156 13.46875 -0.609375 L 13.46875 0 L 12.765625 0 C 12.054688 0 11.394531 -0.132812 10.78125 -0.40625 C 10.175781 -0.6875 9.769531 -1.191406 9.5625 -1.921875 C 9.09375 -1.273438 8.617188 -0.789062 8.140625 -0.46875 C 7.660156 -0.15625 7.203125 0.0390625 6.765625 0.125 C 6.328125 0.21875 5.925781 0.265625 5.5625 0.265625 C 4.71875 0.265625 3.984375 -0.0078125 3.359375 -0.5625 C 2.734375 -1.125 2.421875 -1.972656 2.421875 -3.109375 L 2.421875 -7.984375 C 2.421875 -8.828125 2.265625 -9.394531 1.953125 -9.6875 C 1.648438 -9.976562 1.191406 -10.203125 0.578125 -10.359375 L 0.578125 -10.96875 L 1.3125 -10.96875 C 2.394531 -10.96875 3.140625 -10.648438 3.546875 -10.015625 C 3.953125 -10.648438 4.695312 -10.96875 5.78125 -10.96875 L 6 -10.96875 L 6 -10.359375 C 5.570312 -10.242188 5.257812 -10.101562 5.0625 -9.9375 C 4.875 -9.78125 4.75 -9.546875 4.6875 -9.234375 C 4.632812 -8.929688 4.609375 -8.515625 4.609375 -7.984375 L 4.609375 -3.828125 C 4.609375 -3.179688 4.75 -2.613281 5.03125 -2.125 C 5.3125 -1.644531 5.84375 -1.40625 6.625 -1.40625 C 7.320312 -1.40625 7.867188 -1.582031 8.265625 -1.9375 C 8.671875 -2.289062 8.960938 -2.765625 9.140625 -3.359375 C 9.328125 -3.953125 9.421875 -4.597656 9.421875 -5.296875 L 9.421875 -7.984375 C 9.421875 -8.546875 9.390625 -8.976562 9.328125 -9.28125 C 9.273438 -9.582031 9.148438 -9.804688 8.953125 -9.953125 C 8.753906 -10.109375 8.457031 -10.242188 8.0625 -10.359375 L 8.0625 -10.96875 L 8.296875 -10.96875 C 9.378906 -10.96875 10.125 -10.648438 10.53125 -10.015625 C 10.9375 -10.648438 11.679688 -10.96875 12.765625 -10.96875 Z M 13.46875 -10.96875 "/></g></g></g><g fill="#f6f6e9" fill-opacity="1"><g transform="translate(57.64396, 351.500017)"><g><path d="M 5.671875 0 L 4.96875 0 C 4.40625 0 3.863281 -0.0859375 3.34375 -0.265625 C 2.832031 -0.441406 2.414062 -0.742188 2.09375 -1.171875 C 1.78125 -1.597656 1.625 -2.191406 1.625 -2.953125 L 1.625 -14.140625 C 1.625 -14.953125 1.46875 -15.507812 1.15625 -15.8125 C 0.851562 -16.125 0.382812 -16.363281 -0.25 -16.53125 L -0.25 -17.125 L 0.46875 -17.125 C 1.53125 -17.125 2.28125 -16.8125 2.71875 -16.1875 C 3.15625 -16.8125 3.90625 -17.125 4.96875 -17.125 L 5.671875 -17.125 L 5.671875 -16.53125 C 5.046875 -16.363281 4.578125 -16.125 4.265625 -15.8125 C 3.960938 -15.507812 3.8125 -14.953125 3.8125 -14.140625 L 3.8125 -2.984375 C 3.8125 -2.191406 3.960938 -1.640625 4.265625 -1.328125 C 4.578125 -1.023438 5.046875 -0.785156 5.671875 -0.609375 Z M 5.671875 0 "/></g></g></g><g fill="#f6f6e9" fill-opacity="1"><g transform="translate(69.774665, 351.500017)"><g><path d="M 5.671875 0 L 4.96875 0 C 4.40625 0 3.863281 -0.0859375 3.34375 -0.265625 C 2.832031 -0.441406 2.414062 -0.742188 2.09375 -1.171875 C 1.78125 -1.597656 1.625 -2.191406 1.625 -2.953125 L 1.625 -14.140625 C 1.625 -14.953125 1.46875 -15.507812 1.15625 -15.8125 C 0.851562 -16.125 0.382812 -16.363281 -0.25 -16.53125 L -0.25 -17.125 L 0.46875 -17.125 C 1.53125 -17.125 2.28125 -16.8125 2.71875 -16.1875 C 3.15625 -16.8125 3.90625 -17.125 4.96875 -17.125 L 5.671875 -17.125 L 5.671875 -16.53125 C 5.046875 -16.363281 4.578125 -16.125 4.265625 -15.8125 C 3.960938 -15.507812 3.8125 -14.953125 3.8125 -14.140625 L 3.8125 -2.984375 C 3.8125 -2.191406 3.960938 -1.640625 4.265625 -1.328125 C 4.578125 -1.023438 5.046875 -0.785156 5.671875 -0.609375 Z M 5.671875 0 "/></g></g></g><g fill="#f6f6e9" fill-opacity="1"><g transform="translate(81.905368, 351.500017)"><g/></g></g><g fill="#f6f6e9" fill-opacity="1"><g transform="translate(95.00638, 351.500017)"><g><path d="M 1.59375 0.46875 L 1 0.46875 L 1 0.1875 C 1 -0.289062 1.085938 -0.660156 1.265625 -0.921875 C 1.441406 -1.179688 1.664062 -1.328125 1.9375 -1.359375 C 1.582031 -1.679688 1.335938 -2.050781 1.203125 -2.46875 C 1.066406 -2.894531 1 -3.457031 1 -4.15625 L 1 -4.75 L 1.59375 -4.75 C 2.257812 -3.632812 2.851562 -2.785156 3.375 -2.203125 C 3.90625 -1.617188 4.4375 -1.21875 4.96875 -1 C 5.507812 -0.78125 6.109375 -0.671875 6.765625 -0.671875 C 7.816406 -0.671875 8.59375 -0.960938 9.09375 -1.546875 C 9.601562 -2.128906 9.859375 -2.796875 9.859375 -3.546875 C 9.859375 -4.023438 9.734375 -4.523438 9.484375 -5.046875 C 9.242188 -5.578125 8.878906 -6.046875 8.390625 -6.453125 C 7.585938 -7.148438 6.742188 -7.804688 5.859375 -8.421875 C 4.972656 -9.035156 4.207031 -9.609375 3.5625 -10.140625 C 2.914062 -10.691406 2.46875 -11.191406 2.21875 -11.640625 C 1.96875 -12.097656 1.84375 -12.625 1.84375 -13.21875 C 1.84375 -14.09375 2.0625 -14.84375 2.5 -15.46875 C 2.9375 -16.101562 3.539062 -16.59375 4.3125 -16.9375 C 5.09375 -17.28125 5.984375 -17.453125 6.984375 -17.453125 C 7.710938 -17.453125 8.351562 -17.429688 8.90625 -17.390625 C 9.46875 -17.347656 9.921875 -17.285156 10.265625 -17.203125 C 10.710938 -17.109375 11.015625 -17.09375 11.171875 -17.15625 C 11.335938 -17.21875 11.503906 -17.378906 11.671875 -17.640625 L 12.28125 -17.640625 L 12.28125 -17.34375 C 12.28125 -16.945312 12.203125 -16.601562 12.046875 -16.3125 C 11.890625 -16.019531 11.648438 -15.859375 11.328125 -15.828125 C 11.753906 -15.460938 12.019531 -15.070312 12.125 -14.65625 C 12.226562 -14.238281 12.28125 -13.796875 12.28125 -13.328125 L 12.28125 -12.40625 L 11.671875 -12.40625 C 11.316406 -13.53125 10.851562 -14.378906 10.28125 -14.953125 C 9.707031 -15.535156 9.113281 -15.929688 8.5 -16.140625 C 7.894531 -16.347656 7.347656 -16.453125 6.859375 -16.453125 C 6.203125 -16.453125 5.671875 -16.3125 5.265625 -16.03125 C 4.859375 -15.757812 4.566406 -15.441406 4.390625 -15.078125 C 4.210938 -14.710938 4.125 -14.378906 4.125 -14.078125 C 4.125 -13.753906 4.21875 -13.429688 4.40625 -13.109375 C 4.59375 -12.796875 4.78125 -12.539062 4.96875 -12.34375 C 5.289062 -12.039062 5.757812 -11.675781 6.375 -11.25 C 6.988281 -10.820312 7.65625 -10.359375 8.375 -9.859375 C 9.101562 -9.367188 9.765625 -8.859375 10.359375 -8.328125 C 11.085938 -7.679688 11.609375 -7.078125 11.921875 -6.515625 C 12.242188 -5.953125 12.40625 -5.328125 12.40625 -4.640625 C 12.40625 -4.097656 12.300781 -3.539062 12.09375 -2.96875 C 11.894531 -2.394531 11.5625 -1.859375 11.09375 -1.359375 C 10.625 -0.867188 10.003906 -0.46875 9.234375 -0.15625 C 8.460938 0.144531 7.503906 0.296875 6.359375 0.296875 C 5.753906 0.296875 5.191406 0.28125 4.671875 0.25 C 4.160156 0.226562 3.640625 0.160156 3.109375 0.046875 C 2.640625 -0.046875 2.316406 -0.0664062 2.140625 -0.015625 C 1.972656 0.0234375 1.789062 0.1875 1.59375 0.46875 Z M 1.59375 0.46875 "/></g></g></g><g fill="#f6f6e9" fill-opacity="1"><g transform="translate(114.729808, 351.500017)"><g><path d="M 7.6875 -10.96875 L 7.6875 -10 L 4.640625 -10 L 4.640625 -3.46875 C 4.640625 -2.769531 4.710938 -2.234375 4.859375 -1.859375 C 5.015625 -1.492188 5.28125 -1.222656 5.65625 -1.046875 C 6.039062 -0.867188 6.566406 -0.722656 7.234375 -0.609375 L 7.234375 0 L 5.796875 0 C 5.234375 0 4.691406 -0.0859375 4.171875 -0.265625 C 3.648438 -0.441406 3.234375 -0.742188 2.921875 -1.171875 C 2.609375 -1.597656 2.453125 -2.191406 2.453125 -2.953125 L 2.453125 -7.984375 C 2.453125 -8.796875 2.296875 -9.351562 1.984375 -9.65625 C 1.679688 -9.96875 1.210938 -10.203125 0.578125 -10.359375 L 0.578125 -10.96875 L 1.28125 -10.96875 C 1.800781 -10.96875 2.234375 -11.078125 2.578125 -11.296875 C 2.929688 -11.515625 3.207031 -11.914062 3.40625 -12.5 C 3.613281 -13.082031 3.738281 -13.90625 3.78125 -14.96875 L 4.640625 -14.96875 L 4.640625 -10.96875 Z M 7.6875 -10.96875 "/></g></g></g><g fill="#f6f6e9" fill-opacity="1"><g transform="translate(128.922426, 351.500017)"><g><path d="M 9.515625 -7.984375 L 9.515625 -2.984375 C 9.515625 -2.191406 9.585938 -1.628906 9.734375 -1.296875 C 9.890625 -0.960938 10.1875 -0.734375 10.625 -0.609375 L 10.625 0 L 9.265625 0 C 8.710938 0 8.285156 -0.160156 7.984375 -0.484375 C 7.691406 -0.804688 7.503906 -1.242188 7.421875 -1.796875 C 7.066406 -1.066406 6.59375 -0.546875 6 -0.234375 C 5.414062 0.0664062 4.835938 0.21875 4.265625 0.21875 C 3.316406 0.21875 2.5625 -0.046875 2 -0.578125 C 1.445312 -1.117188 1.171875 -1.773438 1.171875 -2.546875 C 1.171875 -3.148438 1.316406 -3.640625 1.609375 -4.015625 C 1.910156 -4.398438 2.300781 -4.71875 2.78125 -4.96875 C 3.257812 -5.21875 3.757812 -5.441406 4.28125 -5.640625 C 4.8125 -5.835938 5.296875 -6.050781 5.734375 -6.28125 C 6.441406 -6.65625 6.894531 -7.035156 7.09375 -7.421875 C 7.300781 -7.804688 7.40625 -8.257812 7.40625 -8.78125 C 7.40625 -9.019531 7.378906 -9.273438 7.328125 -9.546875 C 7.273438 -9.816406 7.160156 -10.039062 6.984375 -10.21875 C 6.804688 -10.394531 6.53125 -10.484375 6.15625 -10.484375 C 5.707031 -10.484375 5.375 -10.378906 5.15625 -10.171875 C 4.9375 -9.972656 4.773438 -9.707031 4.671875 -9.375 C 4.578125 -9.039062 4.492188 -8.695312 4.421875 -8.34375 C 4.347656 -7.988281 4.234375 -7.644531 4.078125 -7.3125 C 3.929688 -6.976562 3.6875 -6.710938 3.34375 -6.515625 C 3.007812 -6.316406 2.519531 -6.21875 1.875 -6.21875 L 1.171875 -6.21875 L 1.171875 -6.8125 C 1.472656 -6.8125 1.707031 -6.960938 1.875 -7.265625 C 2.050781 -7.566406 2.210938 -7.9375 2.359375 -8.375 C 2.515625 -8.820312 2.726562 -9.269531 3 -9.71875 C 3.28125 -10.164062 3.675781 -10.535156 4.1875 -10.828125 C 4.695312 -11.128906 5.390625 -11.28125 6.265625 -11.28125 C 7.359375 -11.28125 8.171875 -11.035156 8.703125 -10.546875 C 9.242188 -10.066406 9.515625 -9.210938 9.515625 -7.984375 Z M 4.953125 -1.390625 C 5.273438 -1.390625 5.625 -1.472656 6 -1.640625 C 6.382812 -1.804688 6.710938 -2.09375 6.984375 -2.5 C 7.265625 -2.90625 7.40625 -3.472656 7.40625 -4.203125 L 7.40625 -6.265625 C 7.175781 -5.910156 6.847656 -5.613281 6.421875 -5.375 C 5.992188 -5.132812 5.550781 -4.90625 5.09375 -4.6875 C 4.644531 -4.476562 4.257812 -4.234375 3.9375 -3.953125 C 3.625 -3.679688 3.46875 -3.3125 3.46875 -2.84375 C 3.46875 -2.4375 3.597656 -2.09375 3.859375 -1.8125 C 4.128906 -1.53125 4.492188 -1.390625 4.953125 -1.390625 Z M 4.953125 -1.390625 "/></g></g></g><g fill="#f6f6e9" fill-opacity="1"><g transform="translate(146.268578, 351.500017)"><g><path d="M 6.28125 0.21875 C 4.675781 0.21875 3.410156 -0.226562 2.484375 -1.125 C 1.566406 -2.019531 1.109375 -3.269531 1.109375 -4.875 C 1.109375 -5.75 1.273438 -6.566406 1.609375 -7.328125 C 1.941406 -8.085938 2.390625 -8.757812 2.953125 -9.34375 C 3.523438 -9.9375 4.15625 -10.398438 4.84375 -10.734375 C 5.539062 -11.066406 6.253906 -11.234375 6.984375 -11.234375 C 7.734375 -11.234375 8.304688 -11.082031 8.703125 -10.78125 C 9.097656 -10.488281 9.394531 -10.117188 9.59375 -9.671875 C 9.800781 -9.222656 9.957031 -8.773438 10.0625 -8.328125 C 10.175781 -7.890625 10.304688 -7.519531 10.453125 -7.21875 C 10.597656 -6.914062 10.828125 -6.765625 11.140625 -6.765625 L 11.140625 -6.15625 L 10.4375 -6.15625 C 9.800781 -6.15625 9.3125 -6.253906 8.96875 -6.453125 C 8.632812 -6.648438 8.394531 -6.894531 8.25 -7.1875 C 8.101562 -7.488281 8 -7.804688 7.9375 -8.140625 C 7.882812 -8.484375 7.820312 -8.804688 7.75 -9.109375 C 7.675781 -9.421875 7.546875 -9.675781 7.359375 -9.875 C 7.171875 -10.070312 6.867188 -10.175781 6.453125 -10.1875 C 6.015625 -10.1875 5.535156 -10.039062 5.015625 -9.75 C 4.503906 -9.457031 4.066406 -8.988281 3.703125 -8.34375 C 3.335938 -7.695312 3.15625 -6.832031 3.15625 -5.75 C 3.15625 -4.988281 3.3125 -4.300781 3.625 -3.6875 C 3.9375 -3.070312 4.390625 -2.582031 4.984375 -2.21875 C 5.578125 -1.851562 6.285156 -1.671875 7.109375 -1.671875 C 7.773438 -1.671875 8.34375 -1.769531 8.8125 -1.96875 C 9.28125 -2.175781 9.707031 -2.503906 10.09375 -2.953125 L 10.625 -2.640625 C 10.414062 -2.046875 10.082031 -1.535156 9.625 -1.109375 C 9.164062 -0.679688 8.644531 -0.351562 8.0625 -0.125 C 7.476562 0.101562 6.882812 0.21875 6.28125 0.21875 Z M 6.28125 0.21875 "/></g></g></g><g fill="#f6f6e9" fill-opacity="1"><g transform="translate(164.196913, 351.500017)"><g><path d="M 1.3125 0 L 0.609375 0 L 0.609375 -0.609375 C 1.234375 -0.785156 1.695312 -1.023438 2 -1.328125 C 2.3125 -1.640625 2.46875 -2.191406 2.46875 -2.984375 L 2.46875 -14.140625 C 2.46875 -14.953125 2.3125 -15.507812 2 -15.8125 C 1.695312 -16.125 1.234375 -16.363281 0.609375 -16.53125 L 0.609375 -17.125 L 1.3125 -17.125 C 2.394531 -17.125 3.140625 -16.8125 3.546875 -16.1875 C 3.953125 -16.8125 4.695312 -17.125 5.78125 -17.125 L 6.5 -17.125 L 6.5 -16.53125 C 5.90625 -16.363281 5.445312 -16.132812 5.125 -15.84375 C 4.8125 -15.550781 4.65625 -14.984375 4.65625 -14.140625 L 4.65625 -6.234375 C 5.9375 -6.941406 6.914062 -7.570312 7.59375 -8.125 C 8.269531 -8.675781 8.609375 -9.128906 8.609375 -9.484375 C 8.609375 -9.742188 8.441406 -9.9375 8.109375 -10.0625 C 7.785156 -10.195312 7.347656 -10.296875 6.796875 -10.359375 L 6.796875 -10.96875 L 7.671875 -10.96875 C 8.734375 -10.96875 9.484375 -10.648438 9.921875 -10.015625 C 10.359375 -10.648438 11.113281 -10.96875 12.1875 -10.96875 L 12.78125 -10.96875 L 12.78125 -10.359375 C 12.207031 -10.203125 11.710938 -9.988281 11.296875 -9.71875 C 10.878906 -9.445312 10.375 -9.101562 9.78125 -8.6875 L 6.59375 -6.4375 C 6.9375 -5.96875 7.460938 -5.378906 8.171875 -4.671875 C 8.890625 -3.960938 9.71875 -3.242188 10.65625 -2.515625 C 11.601562 -1.796875 12.617188 -1.144531 13.703125 -0.5625 L 13.703125 0 L 13.375 0 C 12.820312 0 12.296875 -0.078125 11.796875 -0.234375 C 11.304688 -0.398438 10.835938 -0.640625 10.390625 -0.953125 C 10.421875 -0.640625 10.273438 -0.398438 9.953125 -0.234375 C 9.628906 -0.078125 9.179688 0 8.609375 0 L 8.078125 0 L 8.078125 -0.609375 C 8.503906 -0.609375 8.71875 -0.757812 8.71875 -1.0625 C 8.71875 -1.289062 8.625 -1.5 8.4375 -1.6875 C 8.25 -1.882812 7.972656 -2.132812 7.609375 -2.4375 C 7.253906 -2.738281 6.832031 -3.128906 6.34375 -3.609375 C 5.851562 -4.097656 5.289062 -4.75 4.65625 -5.5625 L 4.65625 -2.984375 C 4.65625 -2.140625 4.8125 -1.578125 5.125 -1.296875 C 5.445312 -1.015625 5.90625 -0.785156 6.5 -0.609375 L 6.5 0 L 5.78125 0 C 4.695312 0 3.953125 -0.316406 3.546875 -0.953125 C 3.140625 -0.316406 2.394531 0 1.3125 0 Z M 1.3125 0 "/></g></g></g><g fill="#f6f6e9" fill-opacity="1"><g transform="translate(184.356973, 351.500017)"><g/></g></g><g fill="#f6f6e9" fill-opacity="1"><g transform="translate(197.457985, 351.500017)"><g><path d="M 8.859375 -17.125 L 9.90625 -17.125 C 13.164062 -17.125 15.679688 -16.398438 17.453125 -14.953125 C 19.222656 -13.503906 20.109375 -11.445312 20.109375 -8.78125 C 20.109375 -7.570312 19.867188 -6.4375 19.390625 -5.375 C 18.921875 -4.3125 18.253906 -3.375 17.390625 -2.5625 C 16.523438 -1.757812 15.492188 -1.128906 14.296875 -0.671875 C 13.097656 -0.222656 11.78125 0 10.34375 0 L 8.859375 0 C 7.671875 0 6.769531 -0.078125 6.15625 -0.234375 C 5.539062 -0.398438 5.070312 -0.640625 4.75 -0.953125 C 4.3125 -0.316406 3.515625 0 2.359375 0 L 0.5625 0 L 0.5625 -0.609375 C 1.332031 -0.691406 1.921875 -0.84375 2.328125 -1.0625 C 2.742188 -1.28125 3.03125 -1.625 3.1875 -2.09375 C 3.34375 -2.5625 3.421875 -3.195312 3.421875 -4 L 3.421875 -13.125 C 3.421875 -13.96875 3.332031 -14.601562 3.15625 -15.03125 C 2.976562 -15.457031 2.679688 -15.773438 2.265625 -15.984375 C 1.859375 -16.203125 1.289062 -16.382812 0.5625 -16.53125 L 0.5625 -17.125 L 2.359375 -17.125 C 3.515625 -17.125 4.3125 -16.8125 4.75 -16.1875 C 5.070312 -16.488281 5.546875 -16.71875 6.171875 -16.875 C 6.796875 -17.039062 7.691406 -17.125 8.859375 -17.125 Z M 9.5625 -0.921875 C 11.375 -0.921875 12.828125 -1.21875 13.921875 -1.8125 C 15.023438 -2.414062 15.828125 -3.257812 16.328125 -4.34375 C 16.828125 -5.425781 17.078125 -6.695312 17.078125 -8.15625 C 17.078125 -9.644531 16.832031 -10.90625 16.34375 -11.9375 C 15.851562 -12.96875 15.195312 -13.800781 14.375 -14.4375 C 13.5625 -15.070312 12.671875 -15.535156 11.703125 -15.828125 C 10.742188 -16.117188 9.800781 -16.265625 8.875 -16.265625 C 8.039062 -16.265625 7.410156 -16.164062 6.984375 -15.96875 C 6.566406 -15.769531 6.289062 -15.492188 6.15625 -15.140625 C 6.03125 -14.785156 5.96875 -14.359375 5.96875 -13.859375 L 5.96875 -3.28125 C 5.96875 -2.90625 6.035156 -2.535156 6.171875 -2.171875 C 6.304688 -1.804688 6.628906 -1.503906 7.140625 -1.265625 C 7.648438 -1.035156 8.457031 -0.921875 9.5625 -0.921875 Z M 9.5625 -0.921875 "/></g></g></g><g fill="#f6f6e9" fill-opacity="1"><g transform="translate(224.580069, 351.500017)"><g><path d="M 11.15625 -6.15625 L 3.171875 -6.15625 L 3.171875 -5.828125 C 3.171875 -5.066406 3.328125 -4.367188 3.640625 -3.734375 C 3.960938 -3.109375 4.414062 -2.609375 5 -2.234375 C 5.59375 -1.859375 6.304688 -1.671875 7.140625 -1.671875 C 7.796875 -1.671875 8.359375 -1.769531 8.828125 -1.96875 C 9.296875 -2.175781 9.726562 -2.503906 10.125 -2.953125 L 10.65625 -2.640625 C 10.445312 -2.046875 10.109375 -1.535156 9.640625 -1.109375 C 9.179688 -0.679688 8.660156 -0.351562 8.078125 -0.125 C 7.492188 0.101562 6.90625 0.21875 6.3125 0.21875 C 4.707031 0.21875 3.441406 -0.238281 2.515625 -1.15625 C 1.597656 -2.082031 1.140625 -3.347656 1.140625 -4.953125 C 1.140625 -5.828125 1.304688 -6.644531 1.640625 -7.40625 C 1.972656 -8.164062 2.421875 -8.832031 2.984375 -9.40625 C 3.546875 -9.976562 4.175781 -10.425781 4.875 -10.75 C 5.570312 -11.070312 6.285156 -11.234375 7.015625 -11.234375 C 7.753906 -11.234375 8.320312 -11.082031 8.71875 -10.78125 C 9.113281 -10.488281 9.410156 -10.117188 9.609375 -9.671875 C 9.816406 -9.222656 9.976562 -8.773438 10.09375 -8.328125 C 10.207031 -7.890625 10.335938 -7.519531 10.484375 -7.21875 C 10.628906 -6.914062 10.851562 -6.765625 11.15625 -6.765625 Z M 6.484375 -10.1875 C 6.085938 -10.1875 5.664062 -10.082031 5.21875 -9.875 C 4.78125 -9.664062 4.382812 -9.328125 4.03125 -8.859375 C 3.675781 -8.398438 3.425781 -7.785156 3.28125 -7.015625 L 8.390625 -7.015625 C 8.203125 -7.304688 8.070312 -7.628906 8 -7.984375 C 7.9375 -8.335938 7.867188 -8.679688 7.796875 -9.015625 C 7.722656 -9.347656 7.59375 -9.625 7.40625 -9.84375 C 7.226562 -10.0625 6.921875 -10.175781 6.484375 -10.1875 Z M 6.484375 -10.1875 "/></g></g></g><g fill="#f6f6e9" fill-opacity="1"><g transform="translate(242.532666, 351.500017)"><g><path d="M 6.71875 0.21875 L 5.84375 0.21875 L 2.71875 -7.234375 C 2.375 -8.054688 2.09375 -8.660156 1.875 -9.046875 C 1.65625 -9.441406 1.445312 -9.722656 1.25 -9.890625 C 1.0625 -10.054688 0.816406 -10.210938 0.515625 -10.359375 L 0.515625 -10.96875 L 0.75 -10.96875 C 1.832031 -10.96875 2.578125 -10.648438 2.984375 -10.015625 C 3.390625 -10.648438 4.132812 -10.96875 5.21875 -10.96875 L 5.78125 -10.96875 L 5.78125 -10.359375 C 5.351562 -10.265625 5.019531 -10.125 4.78125 -9.9375 C 4.550781 -9.75 4.4375 -9.46875 4.4375 -9.09375 C 4.4375 -8.875 4.476562 -8.597656 4.5625 -8.265625 C 4.65625 -7.929688 4.800781 -7.546875 5 -7.109375 L 6.9375 -2.53125 L 8.984375 -7.015625 C 9.160156 -7.398438 9.285156 -7.75 9.359375 -8.0625 C 9.441406 -8.382812 9.484375 -8.65625 9.484375 -8.875 C 9.484375 -9.3125 9.363281 -9.644531 9.125 -9.875 C 8.882812 -10.101562 8.566406 -10.265625 8.171875 -10.359375 L 8.171875 -10.96875 L 8.46875 -10.96875 C 9.425781 -10.96875 10.082031 -10.648438 10.4375 -10.015625 C 10.789062 -10.648438 11.445312 -10.96875 12.40625 -10.96875 L 12.546875 -10.96875 L 12.546875 -10.359375 C 12.203125 -10.234375 11.90625 -10.046875 11.65625 -9.796875 C 11.40625 -9.546875 11.15625 -9.195312 10.90625 -8.75 C 10.65625 -8.300781 10.359375 -7.707031 10.015625 -6.96875 Z M 6.71875 0.21875 "/></g></g></g><g fill="#f6f6e9" fill-opacity="1"><g transform="translate(261.407062, 351.500017)"><g><path d="M 11.15625 -6.15625 L 3.171875 -6.15625 L 3.171875 -5.828125 C 3.171875 -5.066406 3.328125 -4.367188 3.640625 -3.734375 C 3.960938 -3.109375 4.414062 -2.609375 5 -2.234375 C 5.59375 -1.859375 6.304688 -1.671875 7.140625 -1.671875 C 7.796875 -1.671875 8.359375 -1.769531 8.828125 -1.96875 C 9.296875 -2.175781 9.726562 -2.503906 10.125 -2.953125 L 10.65625 -2.640625 C 10.445312 -2.046875 10.109375 -1.535156 9.640625 -1.109375 C 9.179688 -0.679688 8.660156 -0.351562 8.078125 -0.125 C 7.492188 0.101562 6.90625 0.21875 6.3125 0.21875 C 4.707031 0.21875 3.441406 -0.238281 2.515625 -1.15625 C 1.597656 -2.082031 1.140625 -3.347656 1.140625 -4.953125 C 1.140625 -5.828125 1.304688 -6.644531 1.640625 -7.40625 C 1.972656 -8.164062 2.421875 -8.832031 2.984375 -9.40625 C 3.546875 -9.976562 4.175781 -10.425781 4.875 -10.75 C 5.570312 -11.070312 6.285156 -11.234375 7.015625 -11.234375 C 7.753906 -11.234375 8.320312 -11.082031 8.71875 -10.78125 C 9.113281 -10.488281 9.410156 -10.117188 9.609375 -9.671875 C 9.816406 -9.222656 9.976562 -8.773438 10.09375 -8.328125 C 10.207031 -7.890625 10.335938 -7.519531 10.484375 -7.21875 C 10.628906 -6.914062 10.851562 -6.765625 11.15625 -6.765625 Z M 6.484375 -10.1875 C 6.085938 -10.1875 5.664062 -10.082031 5.21875 -9.875 C 4.78125 -9.664062 4.382812 -9.328125 4.03125 -8.859375 C 3.675781 -8.398438 3.425781 -7.785156 3.28125 -7.015625 L 8.390625 -7.015625 C 8.203125 -7.304688 8.070312 -7.628906 8 -7.984375 C 7.9375 -8.335938 7.867188 -8.679688 7.796875 -9.015625 C 7.722656 -9.347656 7.59375 -9.625 7.40625 -9.84375 C 7.226562 -10.0625 6.921875 -10.175781 6.484375 -10.1875 Z M 6.484375 -10.1875 "/></g></g></g><g fill="#f6f6e9" fill-opacity="1"><g transform="translate(279.35966, 351.500017)"><g><path d="M 5.671875 0 L 4.96875 0 C 4.40625 0 3.863281 -0.0859375 3.34375 -0.265625 C 2.832031 -0.441406 2.414062 -0.742188 2.09375 -1.171875 C 1.78125 -1.597656 1.625 -2.191406 1.625 -2.953125 L 1.625 -14.140625 C 1.625 -14.953125 1.46875 -15.507812 1.15625 -15.8125 C 0.851562 -16.125 0.382812 -16.363281 -0.25 -16.53125 L -0.25 -17.125 L 0.46875 -17.125 C 1.53125 -17.125 2.28125 -16.8125 2.71875 -16.1875 C 3.15625 -16.8125 3.90625 -17.125 4.96875 -17.125 L 5.671875 -17.125 L 5.671875 -16.53125 C 5.046875 -16.363281 4.578125 -16.125 4.265625 -15.8125 C 3.960938 -15.507812 3.8125 -14.953125 3.8125 -14.140625 L 3.8125 -2.984375 C 3.8125 -2.191406 3.960938 -1.640625 4.265625 -1.328125 C 4.578125 -1.023438 5.046875 -0.785156 5.671875 -0.609375 Z M 5.671875 0 "/></g></g></g><g fill="#f6f6e9" fill-opacity="1"><g transform="translate(291.490373, 351.500017)"><g><path d="M 6.859375 0.21875 C 5.765625 0.21875 4.785156 -0.0351562 3.921875 -0.546875 C 3.054688 -1.066406 2.375 -1.769531 1.875 -2.65625 C 1.382812 -3.550781 1.140625 -4.539062 1.140625 -5.625 C 1.140625 -6.675781 1.375 -7.625 1.84375 -8.46875 C 2.3125 -9.320312 2.957031 -10 3.78125 -10.5 C 4.601562 -11.007812 5.5625 -11.265625 6.65625 -11.265625 C 7.78125 -11.265625 8.765625 -11.007812 9.609375 -10.5 C 10.460938 -10 11.128906 -9.3125 11.609375 -8.4375 C 12.085938 -7.570312 12.328125 -6.578125 12.328125 -5.453125 C 12.328125 -4.390625 12.085938 -3.425781 11.609375 -2.5625 C 11.128906 -1.707031 10.476562 -1.03125 9.65625 -0.53125 C 8.84375 -0.03125 7.910156 0.21875 6.859375 0.21875 Z M 6.984375 -0.703125 C 7.972656 -0.703125 8.710938 -1.039062 9.203125 -1.71875 C 9.703125 -2.394531 9.953125 -3.285156 9.953125 -4.390625 C 9.953125 -5.097656 9.882812 -5.804688 9.75 -6.515625 C 9.625 -7.222656 9.414062 -7.863281 9.125 -8.4375 C 8.832031 -9.019531 8.457031 -9.484375 8 -9.828125 C 7.550781 -10.179688 6.992188 -10.359375 6.328125 -10.359375 C 5.535156 -10.359375 4.875 -10.054688 4.34375 -9.453125 C 3.820312 -8.847656 3.5625 -7.921875 3.5625 -6.671875 C 3.5625 -6.003906 3.617188 -5.320312 3.734375 -4.625 C 3.847656 -3.9375 4.035156 -3.289062 4.296875 -2.6875 C 4.566406 -2.09375 4.921875 -1.613281 5.359375 -1.25 C 5.796875 -0.882812 6.335938 -0.703125 6.984375 -0.703125 Z M 6.984375 -0.703125 "/></g></g></g><g fill="#f6f6e9" fill-opacity="1"><g transform="translate(310.801407, 351.500017)"><g><path d="M 8.6875 -11.1875 C 9.6875 -11.1875 10.515625 -10.9375 11.171875 -10.4375 C 11.828125 -9.9375 12.320312 -9.285156 12.65625 -8.484375 C 12.988281 -7.691406 13.15625 -6.851562 13.15625 -5.96875 C 13.15625 -4.851562 12.898438 -3.820312 12.390625 -2.875 C 11.890625 -1.925781 11.195312 -1.160156 10.3125 -0.578125 C 9.425781 0.00390625 8.40625 0.296875 7.25 0.296875 C 6.707031 0.296875 6.21875 0.234375 5.78125 0.109375 C 5.351562 -0.015625 4.976562 -0.125 4.65625 -0.21875 L 4.65625 3.171875 C 4.65625 3.972656 4.804688 4.523438 5.109375 4.828125 C 5.421875 5.140625 5.894531 5.382812 6.53125 5.5625 L 6.53125 6.15625 L 5.828125 6.15625 C 4.753906 6.15625 4 5.84375 3.5625 5.21875 C 3.125 5.84375 2.375 6.15625 1.3125 6.15625 L 0.609375 6.15625 L 0.609375 5.5625 C 1.234375 5.382812 1.695312 5.140625 2 4.828125 C 2.3125 4.523438 2.46875 3.972656 2.46875 3.171875 L 2.46875 -7.984375 C 2.46875 -8.796875 2.3125 -9.351562 2 -9.65625 C 1.695312 -9.96875 1.234375 -10.203125 0.609375 -10.359375 L 0.609375 -10.96875 L 1.3125 -10.96875 C 1.988281 -10.96875 2.617188 -10.84375 3.203125 -10.59375 C 3.796875 -10.34375 4.21875 -9.894531 4.46875 -9.25 C 4.882812 -9.695312 5.453125 -10.128906 6.171875 -10.546875 C 6.890625 -10.972656 7.726562 -11.1875 8.6875 -11.1875 Z M 7.453125 -9.53125 C 6.367188 -9.53125 5.628906 -9.140625 5.234375 -8.359375 C 4.847656 -7.578125 4.65625 -6.3125 4.65625 -4.5625 C 4.65625 -3.425781 4.941406 -2.492188 5.515625 -1.765625 C 6.085938 -1.035156 6.828125 -0.671875 7.734375 -0.671875 C 8.171875 -0.671875 8.648438 -0.78125 9.171875 -1 C 9.691406 -1.21875 10.132812 -1.601562 10.5 -2.15625 C 10.863281 -2.707031 11.046875 -3.5 11.046875 -4.53125 C 11.046875 -5.101562 10.976562 -5.679688 10.84375 -6.265625 C 10.71875 -6.847656 10.507812 -7.382812 10.21875 -7.875 C 9.9375 -8.363281 9.566406 -8.757812 9.109375 -9.0625 C 8.660156 -9.375 8.109375 -9.53125 7.453125 -9.53125 Z M 7.453125 -9.53125 "/></g></g></g><g fill="#f6f6e9" fill-opacity="1"><g transform="translate(330.937217, 351.500017)"><g><path d="M 11.15625 -6.15625 L 3.171875 -6.15625 L 3.171875 -5.828125 C 3.171875 -5.066406 3.328125 -4.367188 3.640625 -3.734375 C 3.960938 -3.109375 4.414062 -2.609375 5 -2.234375 C 5.59375 -1.859375 6.304688 -1.671875 7.140625 -1.671875 C 7.796875 -1.671875 8.359375 -1.769531 8.828125 -1.96875 C 9.296875 -2.175781 9.726562 -2.503906 10.125 -2.953125 L 10.65625 -2.640625 C 10.445312 -2.046875 10.109375 -1.535156 9.640625 -1.109375 C 9.179688 -0.679688 8.660156 -0.351562 8.078125 -0.125 C 7.492188 0.101562 6.90625 0.21875 6.3125 0.21875 C 4.707031 0.21875 3.441406 -0.238281 2.515625 -1.15625 C 1.597656 -2.082031 1.140625 -3.347656 1.140625 -4.953125 C 1.140625 -5.828125 1.304688 -6.644531 1.640625 -7.40625 C 1.972656 -8.164062 2.421875 -8.832031 2.984375 -9.40625 C 3.546875 -9.976562 4.175781 -10.425781 4.875 -10.75 C 5.570312 -11.070312 6.285156 -11.234375 7.015625 -11.234375 C 7.753906 -11.234375 8.320312 -11.082031 8.71875 -10.78125 C 9.113281 -10.488281 9.410156 -10.117188 9.609375 -9.671875 C 9.816406 -9.222656 9.976562 -8.773438 10.09375 -8.328125 C 10.207031 -7.890625 10.335938 -7.519531 10.484375 -7.21875 C 10.628906 -6.914062 10.851562 -6.765625 11.15625 -6.765625 Z M 6.484375 -10.1875 C 6.085938 -10.1875 5.664062 -10.082031 5.21875 -9.875 C 4.78125 -9.664062 4.382812 -9.328125 4.03125 -8.859375 C 3.675781 -8.398438 3.425781 -7.785156 3.28125 -7.015625 L 8.390625 -7.015625 C 8.203125 -7.304688 8.070312 -7.628906 8 -7.984375 C 7.9375 -8.335938 7.867188 -8.679688 7.796875 -9.015625 C 7.722656 -9.347656 7.59375 -9.625 7.40625 -9.84375 C 7.226562 -10.0625 6.921875 -10.175781 6.484375 -10.1875 Z M 6.484375 -10.1875 "/></g></g></g><g fill="#f6f6e9" fill-opacity="1"><g transform="translate(348.889814, 351.500017)"><g><path d="M 6.9375 -5.703125 L 6.703125 -6.15625 C 7.035156 -6.351562 7.300781 -6.65625 7.5 -7.0625 C 7.695312 -7.46875 7.796875 -7.910156 7.796875 -8.390625 C 7.796875 -8.929688 7.675781 -9.359375 7.4375 -9.671875 C 7.195312 -9.984375 6.878906 -10.148438 6.484375 -10.171875 C 6.015625 -10.179688 5.617188 -9.992188 5.296875 -9.609375 C 4.984375 -9.234375 4.828125 -8.695312 4.828125 -8 L 4.828125 -2.984375 C 4.828125 -2.429688 4.882812 -2 5 -1.6875 C 5.125 -1.382812 5.351562 -1.15625 5.6875 -1 C 6.019531 -0.851562 6.507812 -0.722656 7.15625 -0.609375 L 7.15625 0 L 5.9375 0 C 4.851562 0 4.113281 -0.316406 3.71875 -0.953125 C 3.3125 -0.316406 2.566406 0 1.484375 0 L 0.78125 0 L 0.78125 -0.609375 C 1.40625 -0.785156 1.867188 -1.023438 2.171875 -1.328125 C 2.484375 -1.640625 2.640625 -2.191406 2.640625 -2.984375 L 2.640625 -7.984375 C 2.640625 -8.796875 2.484375 -9.351562 2.171875 -9.65625 C 1.867188 -9.96875 1.40625 -10.203125 0.78125 -10.359375 L 0.78125 -10.96875 L 1.484375 -10.96875 C 2.097656 -10.96875 2.679688 -10.863281 3.234375 -10.65625 C 3.796875 -10.445312 4.210938 -10.082031 4.484375 -9.5625 C 4.734375 -10.082031 5.109375 -10.488281 5.609375 -10.78125 C 6.109375 -11.082031 6.679688 -11.234375 7.328125 -11.234375 C 8.117188 -11.234375 8.75 -11.015625 9.21875 -10.578125 C 9.6875 -10.140625 9.921875 -9.554688 9.921875 -8.828125 C 9.921875 -8.066406 9.65625 -7.410156 9.125 -6.859375 C 8.601562 -6.316406 7.875 -5.929688 6.9375 -5.703125 Z M 6.9375 -5.703125 "/></g></g></g><g fill="#6a6a5d" fill-opacity="1"><g transform="translate(165.286123, 215.900011)"><g><path d="M 0.59375 0 L 0.25 0 L 0.25 -0.78125 C 1.15625 -1.125 1.828125 -1.609375 2.265625 -2.234375 C 2.710938 -2.867188 3.125 -3.65625 3.5 -4.59375 L 8.4375 -17.265625 C 8.84375 -18.296875 8.875 -19.160156 8.53125 -19.859375 C 8.195312 -20.566406 7.578125 -20.984375 6.671875 -21.109375 L 6.671875 -21.890625 L 7.75 -21.890625 C 8.351562 -21.890625 8.894531 -21.785156 9.375 -21.578125 C 9.863281 -21.367188 10.242188 -21.066406 10.515625 -20.671875 C 10.796875 -21.085938 11.226562 -21.394531 11.8125 -21.59375 C 12.40625 -21.789062 13.273438 -21.890625 14.421875 -21.890625 C 14.335938 -21.285156 14.382812 -20.691406 14.5625 -20.109375 C 14.75 -19.535156 14.957031 -18.953125 15.1875 -18.359375 L 20.421875 -5.171875 C 20.878906 -4.035156 21.300781 -3.085938 21.6875 -2.328125 C 22.082031 -1.578125 22.707031 -1.0625 23.5625 -0.78125 L 23.5625 0 L 21.859375 0 C 20.367188 0 19.34375 -0.398438 18.78125 -1.203125 C 18.226562 -0.398438 17.207031 0 15.71875 0 L 13.953125 0 L 13.953125 -0.78125 C 15.066406 -1.0625 15.765625 -1.476562 16.046875 -2.03125 C 16.335938 -2.582031 16.3125 -3.3125 15.96875 -4.21875 L 14.390625 -8.40625 L 6.734375 -8.40625 L 5.484375 -4.75 C 5.085938 -3.539062 5.125 -2.640625 5.59375 -2.046875 C 6.0625 -1.460938 6.769531 -1.039062 7.71875 -0.78125 L 7.71875 0 L 6.734375 0 C 5.242188 0 4.21875 -0.398438 3.65625 -1.203125 C 3.101562 -0.398438 2.082031 0 0.59375 0 Z M 10.578125 -18.234375 L 7.40625 -10.171875 L 13.703125 -10.171875 Z M 10.578125 -18.234375 "/></g></g></g><g fill="#6a6a5d" fill-opacity="1"><g transform="translate(186.332378, 215.900011)"><g><path d="M 8.625 0 L 5.515625 0 L 5.515625 -0.78125 C 6.671875 -1 7.519531 -1.273438 8.0625 -1.609375 C 8.613281 -1.941406 8.976562 -2.320312 9.15625 -2.75 C 9.332031 -3.1875 9.421875 -3.675781 9.421875 -4.21875 L 9.421875 -17.203125 C 9.421875 -17.804688 9.351562 -18.359375 9.21875 -18.859375 C 9.082031 -19.367188 8.816406 -19.773438 8.421875 -20.078125 C 8.035156 -20.390625 7.453125 -20.546875 6.671875 -20.546875 C 5.734375 -20.546875 4.773438 -20.09375 3.796875 -19.1875 C 2.816406 -18.28125 2.066406 -16.9375 1.546875 -15.15625 L 0.78125 -15.15625 L 0.78125 -16.765625 C 0.78125 -17.492188 0.863281 -18.109375 1.03125 -18.609375 C 1.207031 -19.117188 1.523438 -19.570312 1.984375 -19.96875 C 1.179688 -20.070312 0.78125 -20.722656 0.78125 -21.921875 L 0.78125 -22.59375 L 1.546875 -22.59375 C 1.710938 -22.25 1.941406 -22.046875 2.234375 -21.984375 C 2.523438 -21.921875 2.914062 -21.890625 3.40625 -21.890625 L 19.96875 -21.890625 C 20.457031 -21.890625 20.851562 -21.921875 21.15625 -21.984375 C 21.457031 -22.046875 21.679688 -22.25 21.828125 -22.59375 L 22.59375 -22.59375 L 22.59375 -21.921875 C 22.59375 -20.722656 22.191406 -20.070312 21.390625 -19.96875 C 21.847656 -19.570312 22.160156 -19.117188 22.328125 -18.609375 C 22.503906 -18.109375 22.59375 -17.492188 22.59375 -16.765625 L 22.59375 -15.15625 L 21.828125 -15.15625 C 21.304688 -16.9375 20.554688 -18.28125 19.578125 -19.1875 C 18.597656 -20.09375 17.640625 -20.546875 16.703125 -20.546875 C 15.941406 -20.546875 15.363281 -20.390625 14.96875 -20.078125 C 14.582031 -19.773438 14.320312 -19.367188 14.1875 -18.859375 C 14.050781 -18.359375 13.984375 -17.804688 13.984375 -17.203125 L 13.984375 -4.21875 C 13.984375 -3.675781 14.066406 -3.1875 14.234375 -2.75 C 14.398438 -2.320312 14.753906 -1.941406 15.296875 -1.609375 C 15.847656 -1.273438 16.710938 -1 17.890625 -0.78125 L 17.890625 0 L 14.75 0 C 14.050781 0 13.429688 -0.101562 12.890625 -0.3125 C 12.359375 -0.519531 11.957031 -0.816406 11.6875 -1.203125 C 11.125 -0.398438 10.101562 0 8.625 0 Z M 8.625 0 "/></g></g></g></svg>